<svg width="131" height="40" viewBox="0 0 131 40" fill="none" xmlns="http://www.w3.org/2000/svg">
<mask id="mask0_10_12" style="mask-type:luminance" maskUnits="userSpaceOnUse" x="0" y="0" width="131" height="40">
<path d="M131 0H0V40H131V0Z" fill="white"/>
</mask>
<g mask="url(#mask0_10_12)">
<path d="M38.7625 2.48679L38.796 3.07304C38.7999 3.14163 38.8045 3.20838 38.8089 3.27302C38.8185 3.41261 38.8275 3.54241 38.8275 3.65991L38.7625 2.48679ZM38.7625 2.48679L38.189 2.61331M38.7625 2.48679L38.189 2.61331M38.189 2.61331C38.0854 2.63617 37.9954 2.65369 37.9074 2.67081L37.889 2.67439C37.7973 2.69226 37.7028 2.71085 37.6073 2.73409L37.5961 2.73681L37.5851 2.74004C35.2813 3.4145 32.9776 4.08916 30.674 4.7638C22.0074 7.30194 13.3416 9.83981 4.67287 12.3659L4.67181 12.3662C4.39408 12.4478 4.11636 12.578 3.93153 12.8429C3.75149 13.1009 3.72134 13.4004 3.72266 13.665L4.22266 13.6625M38.189 2.61331L24.3556 37.1943M4.22266 13.6625C4.2203 13.1915 4.3454 12.9832 4.81275 12.8459C13.4817 10.3198 22.1478 7.78182 30.8143 5.24372L4.22266 13.6625ZM4.22266 13.6625L3.72266 13.6645C3.74154 18.3576 3.75333 23.0483 3.7156 27.7384C3.7051 28.7633 4.00498 29.6247 4.62701 30.3936L4.62751 30.3942C4.95102 30.7928 5.3024 31.1696 5.66622 31.5222C7.3828 33.1892 9.43333 34.289 11.5809 35.1469C15.1633 36.5814 18.8976 37.3363 22.6662 37.8595C23.0014 37.907 23.3182 37.8966 23.6209 37.7737C23.9215 37.6516 24.1518 37.4412 24.355 37.195L24.3556 37.1943M24.3556 37.1943C26.694 34.3514 29.0371 31.5121 31.3805 28.6724L31.3819 28.6707L31.3819 28.6706C33.7257 25.8305 36.0697 22.99 38.4091 20.1458C38.6687 19.8305 38.8152 19.373 38.8157 18.9827M24.3556 37.1943L38.8157 18.9827M6.87712 14.2928L6.87851 14.2938C7.26613 14.5642 7.64005 14.8383 8.00829 15.1083C8.95254 15.8006 9.85945 16.4655 10.8644 16.9694L6.87712 14.2928ZM6.87712 14.2928C6.83579 14.2642 6.79327 14.2261 6.7433 14.1722M6.87712 14.2928L6.59246 14.7039C6.45309 14.6074 6.33822 14.4761 6.21861 14.3257C6.39354 14.2745 6.56844 14.2234 6.7433 14.1722M6.7433 14.1722C16.0147 11.4606 25.2001 8.77512 34.3856 6.09275M6.7433 14.1722L34.3856 6.09275M34.3856 6.09275C34.339 6.14956 34.2922 6.20624 34.245 6.26281L34.2449 6.263C33.2361 7.4727 32.2269 8.68219 31.2177 9.89171C28.4066 13.2608 25.5953 16.6302 22.7917 20.0057L22.7916 20.0059C22.6901 20.1282 22.6311 20.1637 22.5969 20.1776C22.5662 20.19 22.5047 20.206 22.3567 20.1835L22.3557 20.1834C18.3495 19.5842 14.448 18.7649 10.8646 16.9694L34.3856 6.09275ZM36.4656 18.5061C36.4838 15.0763 36.4812 11.6465 36.4786 8.21347C36.4783 7.85857 36.478 7.50362 36.4778 7.14864C36.4551 7.1759 36.4325 7.20311 36.4099 7.23029C35.649 8.14482 34.9254 9.01463 34.2041 9.88459L34.2038 9.88489C33.59 10.6241 32.976 11.3631 32.3621 12.102C29.744 15.253 27.127 18.4029 24.5236 21.5653C24.3629 21.7626 24.2467 22.0683 24.2452 22.2929M36.4656 18.5061C36.4656 18.506 36.4656 18.5059 36.4656 18.5058L36.9656 18.5098L36.4656 18.5071C36.4656 18.5068 36.4656 18.5064 36.4656 18.5061ZM36.4656 18.5061C36.4639 18.7041 36.3757 18.9559 36.262 19.0953C34.1108 21.7221 31.9483 24.3381 29.7847 26.9554C29.0269 27.872 28.2691 28.7888 27.5115 29.7062L27.5112 29.7066C27.116 30.1862 26.7212 30.6657 26.3264 31.1451C25.6275 31.9938 24.9288 32.8423 24.2286 33.6909C24.2285 33.049 24.2282 32.4074 24.2278 31.7658C24.2263 28.6062 24.2247 25.4497 24.2452 22.2929M24.2452 22.2929C24.2452 22.293 24.2452 22.293 24.2452 22.2931L23.7452 22.2897L24.2452 22.2929ZM38.8157 18.9827C38.8329 14.33 38.8305 9.67543 38.8281 5.02191C38.8279 4.56798 38.8277 4.11405 38.8275 3.66014L38.8157 18.9827ZM10.3977 32.0502L10.3976 32.0501C8.74035 31.1843 7.26547 30.1742 6.25334 28.654C6.11585 28.4471 6.02713 28.1933 6.02557 28.007C6.00859 24.8221 6.00972 21.6374 6.01085 18.451C6.01107 17.8454 6.01128 17.2398 6.01137 16.6341C6.52818 17.0441 7.04876 17.4556 7.58949 17.7949L7.58999 17.7952C10.7636 19.7814 14.2419 20.9512 17.8434 21.7046L17.8436 21.7046C18.9047 21.9261 19.9766 22.1074 21.037 22.2868C21.3134 22.3335 21.5891 22.3802 21.8635 22.4273C21.8983 22.4334 21.927 22.4388 21.9522 22.4441C21.9544 22.4446 21.9566 22.4451 21.9587 22.4455C21.9503 25.6139 21.9479 28.7813 21.9455 31.9487C21.9446 33.1056 21.9438 34.2624 21.9426 35.4193C21.8521 35.4051 21.7619 35.391 21.6719 35.3769C21.1311 35.2924 20.5972 35.209 20.062 35.1074L20.0616 35.1073C16.689 34.4691 13.4153 33.628 10.3977 32.0502Z" fill="black" stroke="black"/>
<path d="M78.661 20.2468L78.661 20.2469C78.5913 25.4333 74.8035 29.2219 69.6974 29.1567L69.6973 29.1567C64.5248 29.0892 60.7533 25.2206 60.8482 20.0677M78.661 20.2468L69.8435 11.2834C64.7174 11.2058 60.9428 14.9024 60.8482 20.0677M78.661 20.2468C78.7284 15.132 75.0064 11.3609 69.8436 11.2834L78.661 20.2468ZM60.8482 20.0677L61.3481 20.0769L60.8482 20.0677ZM69.754 26.5646L69.7287 26.5632L69.7034 26.5644C66.5028 26.7182 63.4553 24.0237 63.4532 20.1784C63.4533 16.6046 66.1864 13.8446 69.736 13.8337C73.304 13.8227 76.0145 16.5785 76.03 20.2163L76.03 20.2166C76.0476 23.9056 73.0453 26.74 69.754 26.5646Z" fill="black" stroke="black"/>
<path d="M100.042 11.4776L100.042 11.4776C100.484 11.4868 100.934 11.4882 101.39 11.4897C102.65 11.4937 103.95 11.4978 105.213 11.6665L100.042 11.4776ZM100.042 11.4776C99.5528 11.4681 99.0464 11.5133 98.7015 11.8608C98.3609 12.204 98.3119 12.7094 98.3119 13.1936C98.3095 15.5351 98.3095 17.8767 98.3095 20.2179V20.2308C98.3095 21.018 98.3089 21.8056 98.3084 22.5936C98.3074 24.1709 98.3063 25.7496 98.3095 27.33L98.3095 27.3304C98.3107 27.7707 98.3713 28.2272 98.6848 28.5505C99.0029 28.8784 99.4576 28.9437 99.8967 28.9438C100.212 28.9443 100.53 28.9467 100.849 28.949C101.945 28.9571 103.062 28.9654 104.17 28.9004C106.532 28.7628 108.568 27.8307 110.138 25.9868L110.138 25.9866C111.793 24.0412 112.267 21.7618 112.135 19.3491L112.135 19.349M100.042 11.4776L112.135 19.349M112.135 19.349C111.924 15.4855 109.064 12.1784 105.213 11.6665L112.135 19.349ZM100.955 26.3826L100.955 26.3828C100.955 26.4241 100.956 26.4567 100.958 26.4819C100.98 26.4828 101.008 26.4829 101.043 26.4815C101.043 26.4814 101.043 26.4814 101.043 26.4814L101.064 26.981L100.955 26.3826ZM100.955 26.3826C100.97 24.8625 100.968 23.3399 100.966 21.8213C100.965 21.27 100.964 20.7192 100.964 20.1692C100.964 19.6197 100.965 19.0692 100.966 18.518C100.969 17.0583 100.972 15.5941 100.955 14.1327L100.955 14.1315M100.955 26.3826L100.955 14.1315M100.955 14.1315C100.954 14.0522 100.957 13.9956 100.961 13.9557C100.989 13.9539 101.027 13.9535 101.078 13.9561M100.955 14.1315L101.078 13.9561M101.078 13.9561C101.565 13.9821 102.053 13.9834 102.526 13.9846C102.562 13.9847 102.599 13.9848 102.635 13.9849C103.147 13.9864 103.642 13.99 104.132 14.0242L101.078 13.9561ZM104.132 14.0242C106.895 14.2183 108.999 16.1806 109.408 18.9409L104.132 14.0242Z" fill="black" stroke="black"/>
<path d="M44.9058 22.6209L44.9058 22.6209C43.7774 18.5904 45.5789 14.2193 49.3134 12.279C52.2515 10.7521 55.2211 10.8905 58.0434 12.6689L58.044 12.6694C58.2439 12.7958 58.4296 12.9493 58.5847 13.0775C58.6089 13.0975 58.6324 13.117 58.6551 13.1356C58.6553 13.1357 58.6555 13.1359 58.6557 13.136L58.3386 13.5227C58.6667 13.7902 58.8154 14.0979 58.5251 14.4884L44.9058 22.6209ZM44.9058 22.6209C46.0612 26.7473 49.7993 29.4366 54.0644 29.1482C55.6648 29.0409 57.1759 28.5534 58.4791 27.4943C58.9635 27.1013 59.2058 26.6059 59.1997 25.9822C59.1946 25.4216 59.1956 24.8636 59.1966 24.3029C59.197 24.0758 59.1974 23.8482 59.1974 23.6198C59.1974 23.3787 59.1985 23.135 59.1997 22.8902C59.2022 22.345 59.2048 21.7938 59.1949 21.2509L59.1949 21.2492C59.1859 20.8338 59.1117 20.4085 58.813 20.1007C58.5098 19.7884 58.0862 19.7098 57.6688 19.7044C56.4258 19.6854 55.1817 19.6902 53.9403 19.7044L53.9402 19.7044C53.5649 19.7087 53.2057 19.7988 52.9297 20.0175C52.6387 20.248 52.4928 20.581 52.4947 20.9454L52.4947 20.9456C52.4967 21.3098 52.6459 21.639 52.944 21.8634C53.2222 22.0727 53.5807 22.1542 53.9521 22.1599C54.8324 22.174 55.7155 22.1765 56.5991 22.165C56.5934 22.6346 56.594 23.0927 56.5946 23.5467C56.5955 24.1989 56.5963 24.8428 56.5784 25.5007C56.578 25.5029 56.5767 25.5087 56.5737 25.518C56.5679 25.536 56.5581 25.5589 56.5445 25.583C56.5308 25.6071 56.5163 25.627 56.504 25.641C56.498 25.6477 56.494 25.6515 56.4923 25.6531C55.1564 26.4987 53.6941 26.7793 52.1669 26.476L52.1666 26.476C48.5744 25.7652 46.3448 21.8547 47.4966 18.2821C48.5833 14.9115 51.8753 13.1189 55.1789 14.1218C55.4828 14.2145 55.7829 14.373 56.107 14.5714C56.2226 14.6421 56.3519 14.725 56.4865 14.8114C56.6954 14.9454 56.9172 15.0877 57.1204 15.2052L57.1204 15.2052C57.4083 15.3718 57.7451 15.4894 58.1091 15.4012C58.4623 15.3156 58.721 15.0641 58.9264 14.7867L44.9058 22.6209Z" fill="black" stroke="black"/>
<path d="M127.732 27.8849L127.494 28.1106C127.458 28.1448 127.418 28.1881 127.366 28.2467C127.357 28.2576 127.346 28.2694 127.336 28.2816C127.294 28.3293 127.244 28.3855 127.194 28.4382C127.072 28.5685 126.891 28.7421 126.647 28.841L126.646 28.841C126.303 28.9798 125.947 28.971 125.635 28.8098C125.336 28.655 125.127 28.3861 124.999 28.0903L124.998 28.089C124.939 27.9497 124.878 27.8098 124.818 27.6692C124.497 26.9245 124.168 26.1614 123.892 25.3807C123.813 25.1603 123.741 25.0923 123.695 25.0633C123.643 25.0297 123.538 24.9916 123.287 24.9957L123.287 24.9957C121.02 25.0313 118.754 25.0218 116.491 25.0005L116.491 25.0005C116.319 24.9987 116.266 25.0281 116.253 25.0374C116.241 25.0452 116.196 25.0788 116.137 25.2341C116.137 25.2342 116.137 25.2343 116.137 25.2344L115.669 25.0591C115.41 25.753 115.121 26.4354 114.832 27.1174C114.752 27.3054 114.672 27.4934 114.593 27.6816L127.732 27.8849ZM127.732 27.8849L127.62 27.5769C127.574 27.451 127.535 27.3381 127.499 27.2354C127.45 27.0968 127.408 26.9767 127.366 26.8678L127.366 26.8677L127.361 26.8553C126.955 25.8945 126.55 24.9338 126.145 23.973C124.537 20.1622 122.929 16.3513 121.323 12.5389M127.732 27.8849L121.323 12.5389M113.264 28.8415C113.62 28.9801 114.006 28.9918 114.358 28.7801C114.682 28.5859 114.898 28.2493 115.054 27.8746L113.087 27.0165M113.264 28.8415C113.263 28.8413 113.263 28.8412 113.262 28.841L113.444 28.3751L113.265 28.8421C113.265 28.8419 113.264 28.8417 113.264 28.8415ZM113.264 28.8415C112.881 28.6944 112.596 28.4073 112.489 28.0053C112.388 27.6279 112.46 27.217 112.626 26.8228M112.626 26.8228C112.626 26.823 112.626 26.8231 112.626 26.8232L113.087 27.0165M112.626 26.8228C112.626 26.8227 112.626 26.8226 112.626 26.8225L113.087 27.0165M112.626 26.8228C113.436 24.8907 114.25 22.9614 115.064 21.0322C115.268 20.5481 115.472 20.064 115.676 19.5798M113.087 27.0165C113.897 25.0848 114.71 23.1562 115.524 21.2269C115.729 20.7426 115.933 20.2583 116.137 19.7739M115.676 19.5798L116.137 19.7739M115.676 19.5798C115.943 18.9457 116.211 18.3118 116.478 17.6779C117.197 15.9708 117.917 14.264 118.633 12.5557L118.633 12.5553C118.721 12.3453 118.845 12.0689 119.056 11.8521C119.293 11.6094 119.609 11.4692 120.009 11.4727L120.01 11.4727C120.405 11.4763 120.709 11.6241 120.932 11.8663C121.129 12.0795 121.243 12.3486 121.323 12.5389M115.676 19.5798C115.676 19.5797 115.676 19.5797 115.676 19.5796L116.137 19.7739M116.137 19.7739L121.323 12.5389M121.394 19.3756C121.836 20.4468 122.277 21.5138 122.721 22.5875H122.714H122.7H122.686H122.673H122.659H122.645H122.632H122.618H122.604H122.591H122.577H122.563H122.55H122.536H122.522H122.509H122.495H122.482H122.468H122.454H122.441H122.427H122.413H122.4H122.386H122.373H122.359H122.345H122.332H122.318H122.304H122.291H122.277H122.264H122.25H122.236H122.223H122.209H122.196H122.182H122.168H122.155H122.141H122.128H122.114H122.1H122.087H122.073H122.06H122.046H122.032H122.019H122.005H121.992H121.978H121.965H121.951H121.937H121.924H121.91H121.897H121.883H121.869H121.856H121.842H121.829H121.815H121.802H121.788H121.775H121.761H121.747H121.734H121.72H121.707H121.693H121.68H121.666H121.653H121.639H121.625H121.612H121.598H121.585H121.571H121.558H121.544H121.531H121.517H121.504H121.49H121.476H121.463H121.449H121.436H121.422H121.409H121.395H121.382H121.368H121.355H121.341H121.328H121.314H121.3H121.287H121.273H121.26H121.246H121.233H121.219H121.206H121.192H121.179H121.165H121.152H121.138H121.125H121.111H121.098H121.084H121.071H121.057H121.044H121.03H121.017H121.003H120.99H120.976H120.963H120.949H120.936H120.922H120.909H120.895H120.882H120.868H120.855H120.841H120.828H120.814H120.801H120.787H120.774H120.76H120.747H120.733H120.72H120.706H120.693H120.679H120.666H120.652H120.639H120.625H120.612H120.598H120.585H120.571H120.558H120.544H120.531H120.517H120.504H120.49H120.477H120.463H120.45H120.436H120.423H120.409H120.396H120.382H120.369H120.355H120.342H120.328H120.315H120.301H120.288H120.274H120.261H120.247H120.234H120.22H120.207H120.193H120.18H120.166H120.153H120.139H120.126H120.112H120.099H120.085H120.072H120.058H120.045H120.032H120.018H120.005H119.991H119.978H119.964H119.951H119.937H119.924H119.91H119.897H119.883H119.87H119.856H119.843H119.829H119.816H119.802H119.789H119.775H119.762H119.748H119.735H119.721H119.708H119.694H119.681H119.667H119.654H119.64H119.627H119.613H119.6H119.586H119.573H119.559H119.546H119.533H119.519H119.506H119.492H119.479H119.465H119.452H119.438H119.425H119.411H119.398H119.384H119.371H119.357H119.344H119.33H119.317H119.303H119.29H119.276H119.263H119.249H119.236H119.222H119.209H119.195H119.182H119.168H119.155H119.141H119.128H119.114H119.101H119.087H119.074H119.06H119.047H119.033H119.02H119.006H118.993H118.979H118.966H118.952H118.939H118.925H118.911H118.898H118.884H118.871H118.857H118.844H118.83H118.817H118.803H118.79H118.776H118.763H118.749H118.736H118.722H118.709H118.695H118.682H118.668H118.655H118.641H118.628H118.614H118.6H118.587H118.573H118.56H118.546H118.533H118.519H118.506H118.492H118.479H118.465H118.452H118.438H118.424H118.411H118.397H118.384H118.37H118.357H118.343H118.33H118.316H118.303H118.289H118.275H118.262H118.248H118.235H118.221H118.208H118.194H118.18H118.167H118.153H118.14H118.126H118.113H118.099H118.085H118.072H118.058H118.045H118.031H118.018H118.004H117.99H117.977H117.963H117.95H117.936H117.923H117.909H117.895H117.882H117.868H117.855H117.841H117.827H117.814H117.8H117.787H117.773H117.759H117.746H117.732H117.719H117.705H117.691H117.678H117.664H117.65H117.637H117.623H117.61H117.596H117.582H117.569H117.555H117.541H117.528H117.514H117.501H117.487H117.473H117.46H117.446H117.432H117.419H117.405H117.391H117.378H117.364H117.35H117.337H117.323H117.31H117.296H117.282H117.269H117.261C117.721 21.4727 118.178 20.3638 118.638 19.2468C119.083 18.1671 119.531 17.0798 119.987 15.9723C120.461 17.1197 120.928 18.2499 121.394 19.3756Z" fill="black" stroke="black"/>
<path d="M95.122 22.7833C95.1144 26.3382 92.6788 28.9198 89.1379 29.1978C87.4275 29.332 85.7173 29.1912 84.1154 28.274C82.3195 27.2461 81.2263 25.6749 81.1148 23.5804L81.1147 23.5802C81.0482 22.318 81.0639 21.0423 81.0795 19.7857C81.0841 19.4132 81.0887 19.0423 81.0911 18.6739L93.6595 11.4986C93.9599 11.4704 94.2613 11.5209 94.5211 11.6902C94.7818 11.86 94.9495 12.1161 95.0417 12.4054C95.122 12.6551 95.1207 12.9237 95.1198 13.0951C95.1197 13.1116 95.1197 13.1272 95.1197 13.1418C95.1197 13.1418 95.1197 13.1419 95.1197 13.1419L95.1197 13.1466C95.1244 16.3588 95.1291 19.5698 95.122 22.7833ZM95.122 22.7833L94.622 22.7822M95.122 22.7833L94.622 22.7822M94.622 22.7822C94.615 26.0721 92.3844 28.4413 89.0988 28.6993C87.4395 28.8295 85.8439 28.6875 84.3639 27.8401C82.6975 26.8863 81.7156 25.4591 81.6141 23.5538M94.622 22.7822C94.6291 19.5702 94.6244 16.3606 94.6197 13.1486L94.6197 13.1419L81.6141 23.5538M81.6141 23.5538C81.5484 22.3085 81.5638 21.0597 81.5793 19.8107C81.584 19.4317 81.5887 19.0528 81.5912 18.6739H81.5911H81.591H81.591H81.5909H81.5908H81.5908H81.5907H81.5906H81.5906H81.5905H81.5904H81.5904H81.5903H81.5902H81.5901H81.5901H81.59H81.5899H81.5899H81.5898H81.5897H81.5897H81.5896H81.5895H81.5894H81.5894H81.5893H81.5892H81.5892H81.5891H81.589H81.589H81.5889H81.5888H81.5887H81.5887H81.5886H81.5885H81.5885H81.5884H81.5883H81.5883H81.5882H81.5881H81.5881H81.588H81.5879H81.5878H81.5878H81.5877H81.5876H81.5876H81.5875H81.5874H81.5874H81.5873H81.5872H81.5871H81.5871H81.587H81.5869H81.5869H81.5868H81.5867H81.5867H81.5866H81.5865H81.5865H81.5864H81.5863H81.5862H81.5862H81.5861H81.586H81.586H81.5859H81.5858H81.5858H81.5857H81.5856H81.5855H81.5855H81.5854H81.5853H81.5853H81.5852H81.5851H81.5851H81.585H81.5849H81.5849H81.5848H81.5847H81.5846H81.5846H81.5845H81.5844H81.5844H81.5843H81.5842H81.5842H81.5841H81.584H81.584H81.5839H81.5838H81.5837H81.5837H81.5836H81.5835H81.5835H81.5834H81.5833H81.5833H81.5832H81.5831H81.583H81.583H81.5829H81.5828H81.5828H81.5827H81.5826H81.5826H81.5825H81.5824H81.5824H81.5823H81.5822H81.5821H81.5821H81.582H81.5819H81.5819H81.5818H81.5817H81.5817H81.5816H81.5815H81.5815H81.5814H81.5813H81.5812H81.5812H81.5811H81.581H81.581H81.5809H81.5808H81.5808H81.5807H81.5806H81.5805H81.5805H81.5804H81.5803H81.5803H81.5802H81.5801H81.5801H81.58H81.5799H81.5799H81.5798H81.5797H81.5796H81.5796H81.5795H81.5794H81.5794H81.5793H81.5792H81.5792H81.5791H81.579H81.579H81.5789H81.5788H81.5787H81.5787H81.5786H81.5785H81.5785H81.5784H81.5783H81.5783H81.5782H81.5781H81.5781H81.578H81.5779H81.5778H81.5778H81.5777H81.5776H81.5776H81.5775H81.5774H81.5774H81.5773H81.5772H81.5772H81.5771H81.577H81.5769H81.5769H81.5768H81.5767H81.5767H81.5766H81.5765H81.5765H81.5764H81.5763H81.5762H81.5762H81.5761H81.576H81.576H81.5759H81.5758H81.5758H81.5757H81.5756H81.5756H81.5755H81.5754H81.5753H81.5753H81.5752H81.5751H81.5751H81.575H81.5749H81.5749H81.5748H81.5747H81.5747H81.5746H81.5745H81.5744H81.5744H81.5743H81.5742H81.5742H81.5741H81.574H81.574H81.5739H81.5738H81.5738H81.5737H81.5736H81.5735H81.5735H81.5734H81.5733H81.5733H81.5732H81.5731H81.5731H81.573H81.5729H81.5729H81.5728H81.5727H81.5726H81.5726H81.5725H81.5724H81.5724H81.5723H81.5722H81.5722H81.5721H81.572H81.572H81.5719H81.5718H81.5717H81.5717H81.5716H81.5715H81.5715H81.5714H81.5713H81.5713H81.5712H81.5711H81.5711H81.571H81.5709H81.5708H81.5708H81.5707H81.5706H81.5706H81.5705H81.5704H81.5704H81.5703H81.5702H81.5702H81.5701H81.57H81.5699H81.5699H81.5698H81.5697H81.5697H81.5696H81.5695H81.5695H81.5694H81.5693H81.5693H81.5692H81.5691H81.569H81.569H81.5689H81.5688H81.5688H81.5687H81.5686H81.5686H81.5685H81.5684H81.5684H81.5683H81.5682H81.5681H81.5681H81.568H81.5679H81.5679H81.5678H81.5677H81.5677H81.5676H81.5675H81.5675H81.5674H81.5673H81.5672H81.5672H81.5671H81.567H81.567H81.5669H81.5668H81.5668H81.5667H81.5666H81.5666H81.5665H81.5664H81.5663H81.5663H81.5662H81.5661H81.5661H81.566H81.5659H81.5659H81.5658H81.5657H81.5657H81.5656H81.5655H81.5654H81.5654H81.5653H81.5652H81.5652H81.5651H81.565H81.565H81.5649H81.5648H81.5648H81.5647H81.5646H81.5646H81.5645H81.5644H81.5643H81.5643H81.5642H81.5641H81.5641H81.564H81.5639H81.5639H81.5638H81.5637H81.5637H81.5636H81.5635H81.5634H81.5634H81.5633H81.5632H81.5632H81.5631H81.563H81.563H81.5629H81.5628H81.5628H81.5627H81.5626H81.5625H81.5625H81.5624H81.5623H81.5623H81.5622H81.5621H81.5621H81.562H81.5619H81.5619H81.5618H81.5617H81.5616H81.5616H81.5615H81.5614H81.5614H81.5613H81.5612H81.5612H81.5611H81.561H81.561H81.5609H81.5608H81.5607H81.5607H81.5606H81.5605H81.5605H81.5604H81.5603H81.5603H81.5602H81.5601H81.5601H81.56H81.5599H81.5598H81.5598H81.5597H81.5596H81.5596H81.5595H81.5594H81.5594H81.5593H81.5592H81.5592H81.5591H81.559H81.5589H81.5589H81.5588H81.5587H81.5587H81.5586H81.5585H81.5585H81.5584H81.5583H81.5583H81.5582H81.5581H81.5581H81.558H81.5579H81.5578H81.5578H81.5577H81.5576H81.5576H81.5575H81.5574H81.5574L81.6141 23.5538ZM81.5858 12.6757C81.6566 12.2544 81.9115 12.0082 82.3458 11.9893M81.5858 12.6757C81.5563 12.8463 81.5568 13.0243 81.5572 13.1998C81.5573 13.2216 81.5574 13.2433 81.5574 13.265V17.6739V18.1739L82.3458 11.9893M81.5858 12.6757L81.0927 12.5929M81.5858 12.6757L81.0927 12.5929M82.3458 11.9893C82.8108 11.9703 83.0917 12.2094 83.179 12.6567L82.3458 11.9893ZM82.3253 11.4897L82.3253 11.4897C82.6486 11.4765 82.964 11.5524 83.2196 11.7603C83.473 11.9666 83.6102 12.2561 83.6697 12.561L83.6701 12.5633L83.6701 12.5633C83.716 12.8041 83.7151 13.0516 83.7145 13.2426C83.7144 13.2643 83.7144 13.2851 83.7144 13.3052C83.7151 14.2049 83.7206 15.107 83.7261 16.0106C83.7395 18.2041 83.753 20.4063 83.6977 22.603L83.6977 22.6033C83.6654 23.8573 84.0697 24.8062 84.7149 25.4673C85.366 26.1343 86.297 26.543 87.3696 26.6417L87.3699 26.6418C88.1536 26.7144 88.9946 26.6438 89.7584 26.4452C90.645 26.213 91.3144 25.7593 91.765 25.1554C92.2168 24.5498 92.4699 23.7641 92.4721 22.8355L92.4721 22.8351C92.4781 20.8051 92.4774 18.775 92.4768 16.7442C92.4764 15.5814 92.476 14.4185 92.4769 13.2552C92.4769 13.2275 92.4765 13.197 92.4762 13.1641C92.4744 13.0044 92.4721 12.7898 92.5041 12.5886C92.548 12.3057 92.6642 12.0385 92.8793 11.834C93.0952 11.6287 93.3698 11.5258 93.6595 11.4986L82.3253 11.4897ZM82.3253 11.4897L82.324 11.4898M82.3253 11.4897L82.324 11.4898M82.324 11.4898C82.0145 11.5033 81.7217 11.6016 81.4911 11.8135M82.324 11.4898L81.4911 11.8135M81.4911 11.8135C81.2629 12.0232 81.1416 12.3019 81.0927 12.5929M81.4911 11.8135L81.0927 12.5929" fill="black" stroke="black"/>
</g>
</svg>
