<svg width="157" height="38" viewBox="0 0 157 38" fill="none"
  xmlns="http://www.w3.org/2000/svg">
  <path d="M56.6 30.28C55.088 30.28 53.6693 30 52.344 29.44C51.0373 28.8613 49.8893 28.068 48.9 27.06C47.9293 26.0333 47.164 24.8387 46.604 23.476C46.0627 22.1133 45.792 20.6387 45.792 19.052C45.792 17.484 46.0627 16.028 46.604 14.684C47.164 13.3213 47.9293 12.136 48.9 11.128C49.8893 10.1013 51.0373 9.29867 52.344 8.72C53.6507 8.14133 55.0693 7.852 56.6 7.852C58.0373 7.852 59.2693 8.03867 60.296 8.412C61.3413 8.78533 62.3867 9.40133 63.432 10.26C63.5813 10.372 63.6933 10.4933 63.768 10.624C63.8613 10.736 63.9173 10.8573 63.936 10.988C63.9733 11.1 63.992 11.24 63.992 11.408C63.992 11.7627 63.8613 12.0613 63.6 12.304C63.3573 12.5467 63.0493 12.6773 62.676 12.696C62.3213 12.7147 61.9853 12.5933 61.668 12.332C60.9773 11.7347 60.2587 11.2773 59.512 10.96C58.784 10.6427 57.8133 10.484 56.6 10.484C55.4987 10.484 54.4627 10.708 53.492 11.156C52.5213 11.604 51.6627 12.22 50.916 13.004C50.188 13.788 49.6187 14.7027 49.208 15.748C48.7973 16.7747 48.592 17.876 48.592 19.052C48.592 20.2467 48.7973 21.3667 49.208 22.412C49.6187 23.4387 50.188 24.344 50.916 25.128C51.6627 25.912 52.5213 26.528 53.492 26.976C54.4627 27.4053 55.4987 27.62 56.6 27.62C57.552 27.62 58.448 27.4613 59.288 27.144C60.1467 26.808 60.968 26.3507 61.752 25.772C62.088 25.5293 62.4147 25.4267 62.732 25.464C63.068 25.4827 63.348 25.6133 63.572 25.856C63.796 26.08 63.908 26.3973 63.908 26.808C63.908 26.9947 63.8707 27.1813 63.796 27.368C63.74 27.536 63.628 27.6947 63.46 27.844C62.4707 28.6653 61.3973 29.2813 60.24 29.692C59.0827 30.084 57.8693 30.28 56.6 30.28ZM63.908 26.808L61.108 26.248V21.236H57.244C56.8333 21.236 56.488 21.1147 56.208 20.872C55.928 20.6293 55.788 20.3213 55.788 19.948C55.788 19.5747 55.928 19.2667 56.208 19.024C56.488 18.7813 56.8333 18.66 57.244 18.66H62.48C62.9093 18.66 63.2547 18.8 63.516 19.08C63.7773 19.3413 63.908 19.6867 63.908 20.116V26.808ZM78.6736 30.28C77.031 30.28 75.5283 30.0093 74.1656 29.468C72.803 28.908 71.627 28.1333 70.6376 27.144C69.667 26.136 68.911 24.9507 68.3696 23.588C67.8283 22.2067 67.5576 20.6947 67.5576 19.052C67.5576 17.4093 67.8283 15.9067 68.3696 14.544C68.911 13.1813 69.667 12.0053 70.6376 11.016C71.627 10.008 72.803 9.23333 74.1656 8.692C75.5283 8.132 77.031 7.852 78.6736 7.852C80.3163 7.852 81.8096 8.132 83.1536 8.692C84.5163 9.23333 85.6923 10.008 86.6816 11.016C87.671 12.0053 88.4363 13.1813 88.9776 14.544C89.519 15.9067 89.7896 17.4093 89.7896 19.052C89.7896 20.6947 89.519 22.2067 88.9776 23.588C88.4363 24.9507 87.671 26.136 86.6816 27.144C85.6923 28.1333 84.5163 28.908 83.1536 29.468C81.8096 30.0093 80.3163 30.28 78.6736 30.28ZM78.6736 27.648C79.887 27.648 80.9976 27.4333 82.0056 27.004C83.0323 26.556 83.919 25.9493 84.6656 25.184C85.4123 24.4 85.9816 23.4853 86.3736 22.44C86.7843 21.3947 86.9896 20.2653 86.9896 19.052C86.9896 17.8387 86.7843 16.7093 86.3736 15.664C85.9816 14.6187 85.4123 13.7133 84.6656 12.948C83.919 12.164 83.0323 11.5573 82.0056 11.128C80.9976 10.6987 79.887 10.484 78.6736 10.484C77.4603 10.484 76.3403 10.6987 75.3136 11.128C74.3056 11.5573 73.4283 12.164 72.6816 12.948C71.9536 13.7133 71.3843 14.6187 70.9736 15.664C70.563 16.7093 70.3576 17.8387 70.3576 19.052C70.3576 20.2653 70.563 21.3947 70.9736 22.44C71.3843 23.4853 71.9536 24.4 72.6816 25.184C73.4283 25.9493 74.3056 26.556 75.3136 27.004C76.3403 27.4333 77.4603 27.648 78.6736 27.648ZM103.507 30.448C101.715 30.448 100.128 30.1213 98.7468 29.468C97.3654 28.796 96.2828 27.872 95.4988 26.696C94.7334 25.52 94.3508 24.176 94.3508 22.664V9.588C94.3508 9.15867 94.4908 8.81333 94.7708 8.552C95.0508 8.272 95.3961 8.132 95.8068 8.132C96.2361 8.132 96.5814 8.272 96.8428 8.552C97.1228 8.81333 97.2628 9.15867 97.2628 9.588V22.664C97.2628 23.672 97.5241 24.568 98.0468 25.352C98.5881 26.1173 99.3254 26.724 100.259 27.172C101.211 27.6013 102.293 27.816 103.507 27.816C104.683 27.816 105.719 27.6013 106.615 27.172C107.529 26.724 108.239 26.1173 108.743 25.352C109.265 24.568 109.527 23.672 109.527 22.664V9.588C109.527 9.15867 109.667 8.81333 109.947 8.552C110.227 8.272 110.572 8.132 110.983 8.132C111.412 8.132 111.757 8.272 112.019 8.552C112.28 8.81333 112.411 9.15867 112.411 9.588V22.664C112.411 24.176 112.028 25.52 111.263 26.696C110.516 27.872 109.471 28.796 108.127 29.468C106.783 30.1213 105.243 30.448 103.507 30.448ZM119.459 30C119.048 30 118.703 29.86 118.423 29.58C118.143 29.3 118.003 28.9547 118.003 28.544V9.588C118.003 9.15867 118.143 8.81333 118.423 8.552C118.703 8.272 119.048 8.132 119.459 8.132H124.527C126.132 8.132 127.588 8.40267 128.895 8.944C130.22 9.46667 131.368 10.2227 132.339 11.212C133.31 12.1827 134.056 13.3307 134.579 14.656C135.102 15.9813 135.363 17.4467 135.363 19.052C135.363 20.6573 135.102 22.132 134.579 23.476C134.056 24.8013 133.31 25.9587 132.339 26.948C131.368 27.9187 130.22 28.6747 128.895 29.216C127.588 29.7387 126.132 30 124.527 30H119.459ZM120.915 27.424H124.527C126.095 27.424 127.476 27.0693 128.671 26.36C129.884 25.632 130.836 24.6427 131.527 23.392C132.218 22.1227 132.563 20.676 132.563 19.052C132.563 17.4093 132.218 15.9627 131.527 14.712C130.836 13.4613 129.884 12.4813 128.671 11.772C127.476 11.0627 126.095 10.708 124.527 10.708H120.915V27.424ZM138.518 30C137.995 30 137.594 29.776 137.314 29.328C137.034 28.88 137.006 28.404 137.23 27.9L145.098 9.112C145.378 8.45867 145.835 8.132 146.47 8.132C147.142 8.132 147.599 8.45867 147.842 9.112L155.738 27.956C155.943 28.4787 155.906 28.9547 155.626 29.384C155.365 29.7947 154.963 30 154.422 30C154.142 30 153.871 29.9253 153.61 29.776C153.367 29.608 153.19 29.384 153.078 29.104L146.134 11.856H146.918L139.862 29.104C139.731 29.4027 139.535 29.6267 139.274 29.776C139.031 29.9253 138.779 30 138.518 30ZM140.002 25.184L141.122 22.776H152.098L153.218 25.184H140.002Z" fill="#000000"/>
  <path d="M36.9651 1C36.9801 1.26096 36.9975 1.42499 36.9975 1.58653C37.0001 6.94984 37.005 12.3131 36.9851 17.674C36.9851 17.9747 36.8655 18.335 36.6762 18.5637C31.7394 24.536 26.7827 30.4932 21.846 36.4654C21.4748 36.9128 21.141 37.062 20.5432 36.9774C16.5853 36.4307 12.6921 35.6453 8.96839 34.1615C6.73662 33.2744 4.64183 32.1509 2.89826 30.4659C2.52713 30.108 2.17095 29.7277 1.84465 29.3276C1.26678 28.6169 0.990298 27.8314 1.00026 26.8746C1.04011 21.9462 1.02765 17.0179 1.00773 12.0895C1.00524 11.5949 1.13725 11.3762 1.63044 11.232C13.2103 7.87438 24.7851 4.49683 36.3624 1.12426C36.5368 1.08201 36.7161 1.05468 36.9651 1ZM2.39761 14.1572C2.38266 14.3635 2.36772 14.4854 2.36772 14.6071C2.36772 18.7899 2.36025 22.9727 2.38266 27.1554C2.38516 27.481 2.52713 27.8463 2.71146 28.1222C3.85225 29.8272 5.50117 30.9381 7.27964 31.8627C10.5326 33.5551 14.0472 34.4499 17.624 35.1234C18.4659 35.2825 19.3177 35.4017 20.1571 35.5385C20.202 35.3894 20.2344 35.3321 20.2344 35.2725C20.2393 30.6125 20.2393 25.955 20.2518 21.2951C20.2518 20.89 20.0276 20.8304 19.7138 20.7757C18.3039 20.5346 16.8891 20.3109 15.4893 20.0201C11.7282 19.2372 8.12153 18.0268 4.8411 15.984C4.00916 15.4645 3.26193 14.8059 2.39761 14.1572ZM2.75628 12.3429C3.05021 12.6785 3.23452 12.9942 3.50851 13.183C4.91582 14.1597 6.26087 15.2732 7.78026 16.0312C11.6385 17.9548 15.8231 18.8247 20.065 19.456C20.4934 19.5205 20.7375 19.4112 21.009 19.0856C25.0292 14.2691 29.0643 9.46498 33.0945 4.65589C33.4531 4.22842 33.7969 3.78603 34.1481 3.35111C34.1182 3.31383 34.0883 3.27654 34.0584 3.23927C23.6567 6.26141 13.2601 9.28605 2.75628 12.3429ZM21.5944 34.5319C21.8733 34.2162 22.0377 34.0448 22.1871 33.8633C23.4575 32.3324 24.7228 30.8014 25.9906 29.2704C29.0718 25.5574 32.1604 21.8518 35.2266 18.1263C35.4284 17.8803 35.5578 17.4975 35.5604 17.1793C35.5828 12.9792 35.5754 8.77898 35.5728 4.57636C35.5728 4.38748 35.5454 4.19611 35.5205 3.8606C34.3574 5.25237 33.2962 6.51988 32.2401 7.78739C28.8302 11.8733 25.4153 15.9542 22.0227 20.0549C21.7861 20.3432 21.6118 20.7782 21.6093 21.1484C21.5819 25.3486 21.5919 29.5488 21.5919 33.7515C21.5944 33.9478 21.5944 34.1466 21.5944 34.5319Z" fill="#000000" stroke="#000000"/>
</svg>
