<svg width="138" height="39" viewBox="0 0 138 39" fill="none"
  xmlns="http://www.w3.org/2000/svg">
  <path d="M36.9651 2C36.9801 2.26096 36.9975 2.42499 36.9975 2.58653C37.0001 7.94984 37.005 13.3131 36.9851 18.674C36.9851 18.9747 36.8655 19.335 36.6762 19.5637C31.7394 25.536 26.7827 31.4932 21.846 37.4654C21.4748 37.9128 21.141 38.062 20.5432 37.9774C16.5853 37.4307 12.6921 36.6453 8.96839 35.1615C6.73662 34.2744 4.64183 33.1509 2.89826 31.4659C2.52713 31.108 2.17095 30.7277 1.84465 30.3276C1.26678 29.6169 0.990298 28.8314 1.00026 27.8746C1.04011 22.9462 1.02765 18.0179 1.00773 13.0895C1.00524 12.5949 1.13725 12.3762 1.63044 12.232C13.2103 8.87438 24.7851 5.49683 36.3624 2.12426C36.5368 2.08201 36.7161 2.05468 36.9651 2ZM2.39761 15.1572C2.38266 15.3635 2.36772 15.4854 2.36772 15.6071C2.36772 19.7899 2.36025 23.9727 2.38266 28.1554C2.38516 28.481 2.52713 28.8463 2.71146 29.1222C3.85225 30.8272 5.50117 31.9381 7.27964 32.8627C10.5326 34.5551 14.0472 35.4499 17.624 36.1234C18.4659 36.2825 19.3177 36.4017 20.1571 36.5385C20.202 36.3894 20.2344 36.3321 20.2344 36.2725C20.2393 31.6125 20.2393 26.955 20.2518 22.2951C20.2518 21.89 20.0276 21.8304 19.7138 21.7757C18.3039 21.5346 16.8891 21.3109 15.4893 21.0201C11.7282 20.2372 8.12153 19.0268 4.8411 16.984C4.00916 16.4645 3.26193 15.8059 2.39761 15.1572ZM2.75628 13.3429C3.05021 13.6785 3.23452 13.9942 3.50851 14.183C4.91582 15.1597 6.26087 16.2732 7.78026 17.0312C11.6385 18.9548 15.8231 19.8247 20.065 20.456C20.4934 20.5205 20.7375 20.4112 21.009 20.0856C25.0292 15.2691 29.0643 10.465 33.0945 5.65589C33.4531 5.22842 33.7969 4.78603 34.1481 4.35111C34.1182 4.31383 34.0883 4.27654 34.0584 4.23927C23.6567 7.26141 13.2601 10.286 2.75628 13.3429ZM21.5944 35.5319C21.8733 35.2162 22.0377 35.0448 22.1871 34.8633C23.4575 33.3324 24.7228 31.8014 25.9906 30.2704C29.0718 26.5574 32.1604 22.8518 35.2266 19.1263C35.4284 18.8803 35.5578 18.4975 35.5604 18.1793C35.5828 13.9792 35.5754 9.77898 35.5728 5.57636C35.5728 5.38748 35.5454 5.19611 35.5205 4.8606C34.3574 6.25237 33.2962 7.51988 32.2401 8.78739C28.8302 12.8733 25.4153 16.9542 22.0227 21.0549C21.7861 21.3432 21.6118 21.7782 21.6093 22.1484C21.5819 26.3486 21.5919 30.5488 21.5919 34.7515C21.5944 34.9478 21.5944 35.1466 21.5944 35.5319Z" fill="#facc15" stroke="#facc15" stroke-width="2"/>
  <path d="M59.6251 22.8932C59.6251 23.6814 59.6203 24.4695 59.6274 25.2601C59.6321 25.7263 59.4622 26.079 59.0916 26.3796C57.8831 27.3618 56.4763 27.821 54.9586 27.9228C50.9342 28.195 47.4078 25.6624 46.315 21.7595C45.2481 17.9488 46.9546 13.8234 50.4716 11.9961C53.2497 10.5524 56.0302 10.6802 58.7045 12.3654C58.9028 12.4908 59.0845 12.647 59.2663 12.7961C59.5944 13.0636 59.7431 13.3713 59.4528 13.7618C59.094 14.247 58.773 14.3204 58.2985 14.0459C57.6235 13.6553 56.9815 13.1393 56.2521 12.9169C52.6738 11.8305 49.1144 13.7855 47.9484 17.4021C46.7092 21.2459 49.0978 25.4683 52.9972 26.2399C54.6541 26.5689 56.2474 26.2612 57.6896 25.3476C57.8524 25.2459 58.0011 24.9831 58.0058 24.7914C58.0365 23.6695 58.0129 22.5453 58.0271 21.421C58.0318 21.0612 57.8926 20.9334 57.5409 20.9382C56.6557 20.95 55.7706 20.9476 54.8878 20.9334C54.2647 20.924 53.9248 20.6589 53.9224 20.2163C53.9201 19.7713 54.2623 19.4849 54.8737 19.4778C56.1128 19.4636 57.352 19.4589 58.5889 19.4778C59.3418 19.4873 59.6062 19.7689 59.6227 20.5334C59.6369 21.3145 59.6251 22.105 59.6251 22.8932Z" fill="#facc15" stroke="#facc15" stroke-width="2"/>
  <path d="M73.4896 11.0011C78.3826 11.0745 81.8783 14.6248 81.8146 19.4579C81.7485 24.3786 78.1773 27.936 73.3574 27.8745C68.4597 27.8106 64.912 24.168 65.0017 19.2946C65.0914 14.3999 68.6438 10.9277 73.4896 11.0011ZM73.381 26.2816C76.9782 26.4733 80.2025 23.3893 80.1836 19.4319C80.167 15.5289 77.2426 12.5396 73.3881 12.5514C69.5596 12.5632 66.6068 15.5502 66.6068 19.3964C66.6091 23.5147 69.883 26.4496 73.381 26.2816Z" fill="#facc15" stroke="#facc15" stroke-width="2"/>
  <path d="M86.0002 18.1857C86.0002 16.5502 86.0002 14.9123 86.0002 13.2768C86.0002 13.0804 85.9955 12.8792 86.0286 12.6875C86.0994 12.2662 86.3543 12.02 86.7886 12.0011C87.2536 11.9821 87.5345 12.2212 87.6218 12.6685C87.6619 12.8792 87.6572 13.0993 87.6572 13.317C87.6596 16.4129 87.7186 19.5088 87.6407 22.6022C87.5699 25.3549 89.4275 26.936 91.7666 27.1514C92.6093 27.2295 93.5086 27.1537 94.3276 26.9407C96.2985 26.4247 97.4102 24.8886 97.4149 22.8484C97.4244 19.6555 97.4173 16.4602 97.4197 13.2673C97.4197 13.0709 97.4102 12.8697 97.4409 12.678C97.5023 12.2804 97.7454 12.046 98.149 12.0082C98.5786 11.9679 98.8784 12.162 99.0082 12.5691C99.0672 12.7514 99.0625 12.9573 99.0625 13.1537C99.0672 16.3679 99.0719 19.5798 99.0648 22.794C99.0578 26.0839 96.8272 28.4531 93.5416 28.7111C91.8823 28.8413 90.2867 28.6993 88.8067 27.8519C87.1403 26.8981 86.1584 25.4709 86.0569 23.5656C85.9625 21.7762 86.0357 19.9798 86.0357 18.1857C86.0238 18.1857 86.012 18.1857 86.0002 18.1857Z" fill="#facc15" stroke="#facc15" stroke-width="2"/>
  <path d="M104.002 20.2542C104.002 17.9086 104.002 15.563 104.004 13.2175C104.004 12.2423 104.25 11.982 105.225 12.0009C106.932 12.0364 108.657 11.9607 110.34 12.1855C113.937 12.6636 116.63 15.7595 116.829 19.3997C116.956 21.7263 116.498 23.866 114.95 25.6861C113.475 27.4186 111.57 28.2944 109.334 28.4246C107.923 28.5074 106.504 28.4695 105.09 28.4672C104.262 28.4672 104.004 28.195 104.002 27.3524C103.997 24.9831 104.002 22.6186 104.002 20.2542ZM105.657 20.1926C105.657 22.2613 105.669 24.3323 105.648 26.4009C105.643 26.8719 105.799 27.0234 106.257 27.0044C106.984 26.9737 107.711 26.9973 108.438 26.9926C109.818 26.9855 111.143 26.7536 112.297 25.9346C114.749 24.1973 115.523 21.776 115.096 18.8908C114.652 15.9015 112.36 13.7595 109.36 13.5488C108.343 13.4778 107.316 13.5346 106.297 13.4802C105.756 13.4518 105.641 13.6577 105.648 14.1618C105.671 16.1713 105.657 18.1831 105.657 20.1926Z" fill="#facc15" stroke="#facc15" stroke-width="2"/>
  <path d="M136.208 27.7752C135.996 27.9764 135.798 28.2911 135.517 28.4048C135.078 28.5823 134.705 28.3574 134.516 27.9195C134.136 27.032 133.742 26.1491 133.421 25.2403C133.222 24.684 132.92 24.5136 132.337 24.5231C130.076 24.5586 127.815 24.5491 125.554 24.5278C125.11 24.5231 124.883 24.6698 124.727 25.0864C124.397 25.9716 124.017 26.8379 123.651 27.7089C123.373 28.3763 123 28.5965 122.502 28.4024C122.001 28.2107 121.862 27.716 122.145 27.0438C123.158 24.6272 124.177 22.2154 125.195 19.8012C126.181 17.4604 127.17 15.1195 128.152 12.7763C128.329 12.355 128.525 11.9953 129.063 12C129.58 12.0047 129.753 12.3621 129.92 12.7598C131.931 17.5337 133.945 22.3053 135.958 27.0769C136.031 27.2639 136.09 27.4509 136.208 27.7752ZM125.572 23.1148C127.923 23.1148 130.175 23.1148 132.526 23.1148C131.367 20.3077 130.232 17.5645 129.045 14.6888C127.85 17.5858 126.722 20.3266 125.572 23.1148Z" fill="#facc15" stroke="#facc15" stroke-width="2"/>
</svg>
