<svg width="131" height="40" viewBox="0 0 131 40" fill="none"
  xmlns="http://www.w3.org/2000/svg">
  <g clip-path="url(#clip0_6419_404265)">
    <path d="M38.2968 3.10167C38.311 3.35019 38.3275 3.5064 38.3275 3.66025C38.3299 8.76794 38.3346 13.8756 38.3157 18.981C38.3157 19.2673 38.2024 19.6105 38.023 19.8283C33.3448 25.5159 28.6477 31.1892 23.9695 36.8768C23.6178 37.3028 23.3015 37.4449 22.735 37.3644C18.9844 36.8437 15.2951 36.0957 11.7664 34.6827C9.65152 33.8378 7.66645 32.7679 6.0142 31.1632C5.66251 30.8224 5.32498 30.4602 5.01577 30.0792C4.46817 29.4023 4.20617 28.6543 4.21561 27.7431C4.25337 23.0496 4.24157 18.3561 4.22269 13.6626C4.22033 13.1916 4.34543 12.9833 4.81278 12.846C15.7861 9.64841 26.7547 6.43184 37.7256 3.22001C37.8909 3.17977 38.0608 3.15374 38.2968 3.10167ZM5.53977 15.6318C5.52561 15.8283 5.51145 15.9443 5.51145 16.0602C5.51145 20.0437 5.50437 24.0271 5.52561 28.0105C5.52797 28.3206 5.66251 28.6685 5.83718 28.9312C6.91822 30.5549 8.48078 31.6129 10.1661 32.4934C13.2487 34.1052 16.5792 34.9573 19.9687 35.5987C20.7665 35.7502 21.5737 35.8638 22.3691 35.994C22.4116 35.852 22.4423 35.7975 22.4423 35.7407C22.447 31.3028 22.447 26.8673 22.4588 22.4295C22.4588 22.0437 22.2464 21.9869 21.949 21.9348C20.613 21.7052 19.2723 21.4922 17.9458 21.2153C14.3817 20.4697 10.9639 19.317 7.85528 17.3715C7.06692 16.8768 6.35882 16.2496 5.53977 15.6318ZM5.87966 13.904C6.15819 14.2236 6.33285 14.5242 6.59249 14.704C7.92609 15.6342 9.20069 16.6946 10.6405 17.4165C14.2967 19.2484 18.2621 20.0768 22.2818 20.678C22.6878 20.7395 22.9191 20.6354 23.1764 20.3253C26.986 15.7384 30.8098 11.1632 34.6289 6.58332C34.9687 6.17622 35.2945 5.75492 35.6273 5.34072C35.599 5.30522 35.5706 5.26971 35.5423 5.23421C25.6854 8.11232 15.8333 10.9928 5.87966 13.904ZM23.7311 35.0354C23.9954 34.7348 24.1512 34.5715 24.2928 34.3987C25.4966 32.9407 26.6957 31.4827 27.8971 30.0247C30.8169 26.4886 33.7437 22.9597 36.6493 19.4117C36.8405 19.1774 36.9632 18.8129 36.9656 18.5099C36.9869 14.5099 36.9798 10.5099 36.9774 6.50758C36.9774 6.3277 36.9514 6.14545 36.9278 5.82593C35.8256 7.15137 34.82 8.35847 33.8192 9.56557C30.5879 13.4567 27.3519 17.3431 24.137 21.2484C23.9128 21.523 23.7476 21.9372 23.7452 22.2898C23.7193 26.2898 23.7287 30.2898 23.7287 34.2922C23.7311 34.4792 23.7311 34.6685 23.7311 35.0354Z" fill="#fb923c" stroke="#fb923c" stroke-width="2" />
    <path d="M69.836 11.7833C74.729 11.8567 78.2247 15.407 78.161 20.2401C78.0949 25.1608 74.5237 28.7182 69.7038 28.6567C64.8061 28.5928 61.2584 24.9502 61.3481 20.0768C61.4378 15.1821 64.9902 11.7099 69.836 11.7833ZM69.7274 27.0638C73.3246 27.2555 76.5489 24.1715 76.53 20.2141C76.5134 16.3111 73.589 13.3218 69.7345 13.3336C65.906 13.3454 62.9532 16.3324 62.9532 20.1786C62.9555 24.2969 66.2294 27.2318 69.7274 27.0638Z" fill="#fb923c" stroke="#fb923c" stroke-width="2" />
    <path d="M98.8094 20.2307C98.8094 17.8851 98.8094 15.5395 98.8118 13.194C98.8118 12.2188 99.0572 11.9585 100.032 11.9774C101.739 12.0129 103.464 11.9372 105.147 12.162C108.744 12.6401 111.437 15.736 111.636 19.3762C111.763 21.7028 111.305 23.8425 109.757 25.6626C108.282 27.3951 106.377 28.2709 104.141 28.4011C102.73 28.4839 101.311 28.446 99.8975 28.4437C99.069 28.4437 98.8118 28.1715 98.8094 27.3289C98.8047 24.9596 98.8094 22.5951 98.8094 20.2307ZM100.464 20.1691C100.464 22.2378 100.476 24.3088 100.455 26.3774C100.45 26.8484 100.606 26.9999 101.064 26.9809C101.791 26.9502 102.518 26.9738 103.245 26.9691C104.625 26.962 105.95 26.7301 107.104 25.9111C109.556 24.1738 110.33 21.7525 109.903 18.8673C109.459 15.878 107.167 13.736 104.167 13.5253C103.15 13.4543 102.123 13.5111 101.104 13.4567C100.563 13.4283 100.448 13.6342 100.455 14.1383C100.478 16.1478 100.464 18.1596 100.464 20.1691Z" fill="#fb923c" stroke="#fb923c" stroke-width="2" />
    <path d="M58.6975 23.62C58.6975 24.4082 58.6927 25.1963 58.6998 25.9869C58.7045 26.4531 58.5346 26.8058 58.164 27.1064C56.9555 28.0886 55.5487 28.5478 54.031 28.6496C50.0066 28.9218 46.4802 26.3892 45.3874 22.4863C44.3205 18.6756 46.027 14.5502 49.544 12.7229C52.3221 11.2792 55.1026 11.407 57.7769 13.0922C57.9752 13.2176 58.1569 13.3738 58.3387 13.5229C58.6668 13.7904 58.8155 14.0981 58.5252 14.4886C58.1664 14.9738 57.8454 15.0472 57.3709 14.7727C56.6959 14.3821 56.0539 13.8661 55.3245 13.6437C51.7462 12.5573 48.1868 14.5123 47.0208 18.1289C45.7816 21.9727 48.1702 26.1951 52.0696 26.9667C53.7265 27.2957 55.3198 26.988 56.762 26.0744C56.9248 25.9727 57.0735 25.7099 57.0782 25.5182C57.1089 24.3963 57.0853 23.2721 57.0995 22.1478C57.1042 21.788 56.965 21.6602 56.6133 21.665C55.7281 21.6768 54.843 21.6744 53.9602 21.6602C53.3371 21.6508 52.9972 21.3857 52.9948 20.9431C52.9925 20.4981 53.3347 20.2117 53.9461 20.2046C55.1852 20.1904 56.4244 20.1857 57.6613 20.2046C58.4142 20.2141 58.6786 20.4957 58.6951 21.2602C58.7093 22.0413 58.6975 22.8318 58.6975 23.62Z" fill="#fb923c" stroke="#fb923c" stroke-width="2" />
    <path d="M127.15 27.7479C126.938 27.9491 126.74 28.2638 126.459 28.3775C126.02 28.555 125.647 28.3301 125.458 27.8922C125.078 27.0047 124.684 26.1218 124.363 25.213C124.164 24.6567 123.862 24.4863 123.279 24.4958C121.018 24.5313 118.757 24.5218 116.496 24.5005C116.052 24.4958 115.825 24.6425 115.669 25.0591C115.339 25.9443 114.959 26.8106 114.593 27.6816C114.315 28.349 113.942 28.5692 113.444 28.3751C112.943 28.1834 112.804 27.6887 113.087 27.0165C114.1 24.5999 115.119 22.1881 116.137 19.7739C117.123 17.4331 118.112 15.0922 119.094 12.749C119.271 12.3277 119.467 11.968 120.005 11.9727C120.522 11.9774 120.695 12.3348 120.862 12.7325C122.873 17.5064 124.887 22.278 126.9 27.0496C126.973 27.2366 127.032 27.4236 127.15 27.7479ZM116.514 23.0875C118.865 23.0875 121.117 23.0875 123.468 23.0875C122.309 20.2804 121.174 17.5372 119.987 14.6615C118.792 17.5585 117.664 20.2993 116.514 23.0875Z" fill="#fb923c" stroke="#fb923c" stroke-width="2" />
    <path d="M81.5575 18.1739C81.5575 16.5384 81.5575 14.9005 81.5575 13.265C81.5575 13.0686 81.5528 12.8674 81.5859 12.6757C81.6567 12.2544 81.9116 12.0082 82.3459 11.9893C82.8109 11.9703 83.0918 12.2094 83.1791 12.6567C83.2192 12.8674 83.2145 13.0875 83.2145 13.3052C83.2169 16.4011 83.2759 19.497 83.198 22.5904C83.1272 25.3431 84.9848 26.9242 87.3239 27.1396C88.1666 27.2177 89.0659 27.1419 89.8849 26.9289C91.8558 26.4129 92.9675 24.8768 92.9722 22.8366C92.9817 19.6437 92.9746 16.4484 92.977 13.2555C92.977 13.0591 92.9675 12.8579 92.9982 12.6662C93.0596 12.2686 93.3027 12.0342 93.7063 11.9964C94.1359 11.9561 94.4357 12.1502 94.5655 12.5573C94.6245 12.7396 94.6198 12.9455 94.6198 13.1419C94.6245 16.3561 94.6292 19.568 94.6221 22.7822C94.6151 26.0721 92.3845 28.4413 89.0989 28.6993C87.4396 28.8295 85.844 28.6875 84.364 27.8401C82.6976 26.8863 81.7157 25.4591 81.6142 23.5538C81.5198 21.7644 81.593 19.968 81.593 18.1739C81.5811 18.1739 81.5693 18.1739 81.5575 18.1739Z" fill="#fb923c" stroke="#fb923c" stroke-width="2" />
  </g>
  <defs>
    <clipPath id="clip0_6419_404265">
      <rect width="131" height="40" fill="white" />
    </clipPath>
  </defs>
</svg>