<svg width="153" height="38" viewBox="0 0 153 38" fill="none" xmlns="http://www.w3.org/2000/svg">
<path d="M52.6 30.28C51.088 30.28 49.6693 30 48.344 29.44C47.0373 28.8613 45.8893 28.068 44.9 27.06C43.9293 26.0333 43.164 24.8387 42.604 23.476C42.0627 22.1133 41.792 20.6387 41.792 19.052C41.792 17.484 42.0627 16.028 42.604 14.684C43.164 13.3213 43.9293 12.136 44.9 11.128C45.8893 10.1013 47.0373 9.29867 48.344 8.72C49.6507 8.14133 51.0693 7.852 52.6 7.852C54.0373 7.852 55.2693 8.03867 56.296 8.412C57.3413 8.78533 58.3867 9.40133 59.432 10.26C59.5813 10.372 59.6933 10.4933 59.768 10.624C59.8613 10.736 59.9173 10.8573 59.936 10.988C59.9733 11.1 59.992 11.24 59.992 11.408C59.992 11.7627 59.8613 12.0613 59.6 12.304C59.3573 12.5467 59.0493 12.6773 58.676 12.696C58.3213 12.7147 57.9853 12.5933 57.668 12.332C56.9773 11.7347 56.2587 11.2773 55.512 10.96C54.784 10.6427 53.8133 10.484 52.6 10.484C51.4987 10.484 50.4627 10.708 49.492 11.156C48.5213 11.604 47.6627 12.22 46.916 13.004C46.188 13.788 45.6187 14.7027 45.208 15.748C44.7973 16.7747 44.592 17.876 44.592 19.052C44.592 20.2467 44.7973 21.3667 45.208 22.412C45.6187 23.4387 46.188 24.344 46.916 25.128C47.6627 25.912 48.5213 26.528 49.492 26.976C50.4627 27.4053 51.4987 27.62 52.6 27.62C53.552 27.62 54.448 27.4613 55.288 27.144C56.1467 26.808 56.968 26.3507 57.752 25.772C58.088 25.5293 58.4147 25.4267 58.732 25.464C59.068 25.4827 59.348 25.6133 59.572 25.856C59.796 26.08 59.908 26.3973 59.908 26.808C59.908 26.9947 59.8707 27.1813 59.796 27.368C59.74 27.536 59.628 27.6947 59.46 27.844C58.4707 28.6653 57.3973 29.2813 56.24 29.692C55.0827 30.084 53.8693 30.28 52.6 30.28ZM59.908 26.808L57.108 26.248V21.236H53.244C52.8333 21.236 52.488 21.1147 52.208 20.872C51.928 20.6293 51.788 20.3213 51.788 19.948C51.788 19.5747 51.928 19.2667 52.208 19.024C52.488 18.7813 52.8333 18.66 53.244 18.66H58.48C58.9093 18.66 59.2547 18.8 59.516 19.08C59.7773 19.3413 59.908 19.6867 59.908 20.116V26.808ZM74.6736 30.28C73.031 30.28 71.5283 30.0093 70.1656 29.468C68.803 28.908 67.627 28.1333 66.6376 27.144C65.667 26.136 64.911 24.9507 64.3696 23.588C63.8283 22.2067 63.5576 20.6947 63.5576 19.052C63.5576 17.4093 63.8283 15.9067 64.3696 14.544C64.911 13.1813 65.667 12.0053 66.6376 11.016C67.627 10.008 68.803 9.23333 70.1656 8.692C71.5283 8.132 73.031 7.852 74.6736 7.852C76.3163 7.852 77.8096 8.132 79.1536 8.692C80.5163 9.23333 81.6923 10.008 82.6816 11.016C83.671 12.0053 84.4363 13.1813 84.9776 14.544C85.519 15.9067 85.7896 17.4093 85.7896 19.052C85.7896 20.6947 85.519 22.2067 84.9776 23.588C84.4363 24.9507 83.671 26.136 82.6816 27.144C81.6923 28.1333 80.5163 28.908 79.1536 29.468C77.8096 30.0093 76.3163 30.28 74.6736 30.28ZM74.6736 27.648C75.887 27.648 76.9976 27.4333 78.0056 27.004C79.0323 26.556 79.919 25.9493 80.6656 25.184C81.4123 24.4 81.9816 23.4853 82.3736 22.44C82.7843 21.3947 82.9896 20.2653 82.9896 19.052C82.9896 17.8387 82.7843 16.7093 82.3736 15.664C81.9816 14.6187 81.4123 13.7133 80.6656 12.948C79.919 12.164 79.0323 11.5573 78.0056 11.128C76.9976 10.6987 75.887 10.484 74.6736 10.484C73.4603 10.484 72.3403 10.6987 71.3136 11.128C70.3056 11.5573 69.4283 12.164 68.6816 12.948C67.9536 13.7133 67.3843 14.6187 66.9736 15.664C66.563 16.7093 66.3576 17.8387 66.3576 19.052C66.3576 20.2653 66.563 21.3947 66.9736 22.44C67.3843 23.4853 67.9536 24.4 68.6816 25.184C69.4283 25.9493 70.3056 26.556 71.3136 27.004C72.3403 27.4333 73.4603 27.648 74.6736 27.648ZM99.5068 30.448C97.7148 30.448 96.1281 30.1213 94.7468 29.468C93.3654 28.796 92.2828 27.872 91.4988 26.696C90.7334 25.52 90.3508 24.176 90.3508 22.664V9.588C90.3508 9.15867 90.4908 8.81333 90.7708 8.552C91.0508 8.272 91.3961 8.132 91.8068 8.132C92.2361 8.132 92.5814 8.272 92.8428 8.552C93.1228 8.81333 93.2628 9.15867 93.2628 9.588V22.664C93.2628 23.672 93.5241 24.568 94.0468 25.352C94.5881 26.1173 95.3254 26.724 96.2588 27.172C97.2108 27.6013 98.2934 27.816 99.5068 27.816C100.683 27.816 101.719 27.6013 102.615 27.172C103.529 26.724 104.239 26.1173 104.743 25.352C105.265 24.568 105.527 23.672 105.527 22.664V9.588C105.527 9.15867 105.667 8.81333 105.947 8.552C106.227 8.272 106.572 8.132 106.983 8.132C107.412 8.132 107.757 8.272 108.019 8.552C108.28 8.81333 108.411 9.15867 108.411 9.588V22.664C108.411 24.176 108.028 25.52 107.263 26.696C106.516 27.872 105.471 28.796 104.127 29.468C102.783 30.1213 101.243 30.448 99.5068 30.448ZM115.459 30C115.048 30 114.703 29.86 114.423 29.58C114.143 29.3 114.003 28.9547 114.003 28.544V9.588C114.003 9.15867 114.143 8.81333 114.423 8.552C114.703 8.272 115.048 8.132 115.459 8.132H120.527C122.132 8.132 123.588 8.40267 124.895 8.944C126.22 9.46667 127.368 10.2227 128.339 11.212C129.31 12.1827 130.056 13.3307 130.579 14.656C131.102 15.9813 131.363 17.4467 131.363 19.052C131.363 20.6573 131.102 22.132 130.579 23.476C130.056 24.8013 129.31 25.9587 128.339 26.948C127.368 27.9187 126.22 28.6747 124.895 29.216C123.588 29.7387 122.132 30 120.527 30H115.459ZM116.915 27.424H120.527C122.095 27.424 123.476 27.0693 124.671 26.36C125.884 25.632 126.836 24.6427 127.527 23.392C128.218 22.1227 128.563 20.676 128.563 19.052C128.563 17.4093 128.218 15.9627 127.527 14.712C126.836 13.4613 125.884 12.4813 124.671 11.772C123.476 11.0627 122.095 10.708 120.527 10.708H116.915V27.424ZM134.518 30C133.995 30 133.594 29.776 133.314 29.328C133.034 28.88 133.006 28.404 133.23 27.9L141.098 9.112C141.378 8.45867 141.835 8.132 142.47 8.132C143.142 8.132 143.599 8.45867 143.842 9.112L151.738 27.956C151.943 28.4787 151.906 28.9547 151.626 29.384C151.365 29.7947 150.963 30 150.422 30C150.142 30 149.871 29.9253 149.61 29.776C149.367 29.608 149.19 29.384 149.078 29.104L142.134 11.856H142.918L135.862 29.104C135.731 29.4027 135.535 29.6267 135.274 29.776C135.031 29.9253 134.779 30 134.518 30ZM136.002 25.184L137.122 22.776H148.098L149.218 25.184H136.002Z" fill="#FBBF24"/>
<path d="M36.9651 1C36.9801 1.26096 36.9975 1.42499 36.9975 1.58653C37.0001 6.94984 37.005 12.3131 36.9851 17.674C36.9851 17.9747 36.8655 18.335 36.6762 18.5637C31.7394 24.536 26.7827 30.4932 21.846 36.4654C21.4748 36.9128 21.141 37.062 20.5432 36.9774C16.5853 36.4307 12.6921 35.6453 8.96839 34.1615C6.73662 33.2744 4.64183 32.1509 2.89826 30.4659C2.52713 30.108 2.17095 29.7277 1.84465 29.3276C1.26678 28.6169 0.990298 27.8314 1.00026 26.8746C1.04011 21.9462 1.02765 17.0179 1.00773 12.0895C1.00524 11.5949 1.13725 11.3762 1.63044 11.232C13.2103 7.87438 24.7851 4.49683 36.3624 1.12426C36.5368 1.08201 36.7161 1.05468 36.9651 1ZM2.39761 14.1572C2.38266 14.3635 2.36772 14.4854 2.36772 14.6071C2.36772 18.7899 2.36025 22.9727 2.38266 27.1554C2.38516 27.481 2.52713 27.8463 2.71146 28.1222C3.85225 29.8272 5.50117 30.9381 7.27964 31.8627C10.5326 33.5551 14.0472 34.4499 17.624 35.1234C18.4659 35.2825 19.3177 35.4017 20.1571 35.5385C20.202 35.3894 20.2344 35.3321 20.2344 35.2725C20.2393 30.6125 20.2393 25.955 20.2518 21.2951C20.2518 20.89 20.0276 20.8304 19.7138 20.7757C18.3039 20.5346 16.8891 20.3109 15.4893 20.0201C11.7282 19.2372 8.12153 18.0268 4.8411 15.984C4.00916 15.4645 3.26193 14.8059 2.39761 14.1572ZM2.75628 12.3429C3.05021 12.6785 3.23452 12.9942 3.50851 13.183C4.91582 14.1597 6.26087 15.2732 7.78026 16.0312C11.6385 17.9548 15.8231 18.8247 20.065 19.456C20.4934 19.5205 20.7375 19.4112 21.009 19.0856C25.0292 14.2691 29.0643 9.46498 33.0945 4.65589C33.4531 4.22842 33.7969 3.78603 34.1481 3.35111C34.1182 3.31383 34.0883 3.27654 34.0584 3.23927C23.6567 6.26141 13.2601 9.28605 2.75628 12.3429ZM21.5944 34.5319C21.8733 34.2162 22.0377 34.0448 22.1871 33.8633C23.4575 32.3324 24.7228 30.8014 25.9906 29.2704C29.0718 25.5574 32.1604 21.8518 35.2266 18.1263C35.4284 17.8803 35.5578 17.4975 35.5604 17.1793C35.5828 12.9792 35.5754 8.77898 35.5728 4.57636C35.5728 4.38748 35.5454 4.19611 35.5205 3.8606C34.3574 5.25237 33.2962 6.51988 32.2401 7.78739C28.8302 11.8733 25.4153 15.9542 22.0227 20.0549C21.7861 20.3432 21.6118 20.7782 21.6093 21.1484C21.5819 25.3486 21.5919 29.5488 21.5919 33.7515C21.5944 33.9478 21.5944 34.1466 21.5944 34.5319Z" fill="#FBBF24" stroke="#FBBF24"/>
</svg>
