<svg width="158" height="38" viewBox="0 0 158 38" fill="none" xmlns="http://www.w3.org/2000/svg">
<path d="M57.6 30.28C56.088 30.28 54.6693 30 53.344 29.44C52.0373 28.8613 50.8893 28.068 49.9 27.06C48.9293 26.0333 48.164 24.8387 47.604 23.476C47.0627 22.1133 46.792 20.6387 46.792 19.052C46.792 17.484 47.0627 16.028 47.604 14.684C48.164 13.3213 48.9293 12.136 49.9 11.128C50.8893 10.1013 52.0373 9.29867 53.344 8.72C54.6507 8.14133 56.0693 7.852 57.6 7.852C59.0373 7.852 60.2693 8.03867 61.296 8.412C62.3413 8.78533 63.3867 9.40133 64.432 10.26C64.5813 10.372 64.6933 10.4933 64.768 10.624C64.8613 10.736 64.9173 10.8573 64.936 10.988C64.9733 11.1 64.992 11.24 64.992 11.408C64.992 11.7627 64.8613 12.0613 64.6 12.304C64.3573 12.5467 64.0493 12.6773 63.676 12.696C63.3213 12.7147 62.9853 12.5933 62.668 12.332C61.9773 11.7347 61.2587 11.2773 60.512 10.96C59.784 10.6427 58.8133 10.484 57.6 10.484C56.4987 10.484 55.4627 10.708 54.492 11.156C53.5213 11.604 52.6627 12.22 51.916 13.004C51.188 13.788 50.6187 14.7027 50.208 15.748C49.7973 16.7747 49.592 17.876 49.592 19.052C49.592 20.2467 49.7973 21.3667 50.208 22.412C50.6187 23.4387 51.188 24.344 51.916 25.128C52.6627 25.912 53.5213 26.528 54.492 26.976C55.4627 27.4053 56.4987 27.62 57.6 27.62C58.552 27.62 59.448 27.4613 60.288 27.144C61.1467 26.808 61.968 26.3507 62.752 25.772C63.088 25.5293 63.4147 25.4267 63.732 25.464C64.068 25.4827 64.348 25.6133 64.572 25.856C64.796 26.08 64.908 26.3973 64.908 26.808C64.908 26.9947 64.8707 27.1813 64.796 27.368C64.74 27.536 64.628 27.6947 64.46 27.844C63.4707 28.6653 62.3973 29.2813 61.24 29.692C60.0827 30.084 58.8693 30.28 57.6 30.28ZM64.908 26.808L62.108 26.248V21.236H58.244C57.8333 21.236 57.488 21.1147 57.208 20.872C56.928 20.6293 56.788 20.3213 56.788 19.948C56.788 19.5747 56.928 19.2667 57.208 19.024C57.488 18.7813 57.8333 18.66 58.244 18.66H63.48C63.9093 18.66 64.2547 18.8 64.516 19.08C64.7773 19.3413 64.908 19.6867 64.908 20.116V26.808ZM79.6736 30.28C78.031 30.28 76.5283 30.0093 75.1656 29.468C73.803 28.908 72.627 28.1333 71.6376 27.144C70.667 26.136 69.911 24.9507 69.3696 23.588C68.8283 22.2067 68.5576 20.6947 68.5576 19.052C68.5576 17.4093 68.8283 15.9067 69.3696 14.544C69.911 13.1813 70.667 12.0053 71.6376 11.016C72.627 10.008 73.803 9.23333 75.1656 8.692C76.5283 8.132 78.031 7.852 79.6736 7.852C81.3163 7.852 82.8096 8.132 84.1536 8.692C85.5163 9.23333 86.6923 10.008 87.6816 11.016C88.671 12.0053 89.4363 13.1813 89.9776 14.544C90.519 15.9067 90.7896 17.4093 90.7896 19.052C90.7896 20.6947 90.519 22.2067 89.9776 23.588C89.4363 24.9507 88.671 26.136 87.6816 27.144C86.6923 28.1333 85.5163 28.908 84.1536 29.468C82.8096 30.0093 81.3163 30.28 79.6736 30.28ZM79.6736 27.648C80.887 27.648 81.9976 27.4333 83.0056 27.004C84.0323 26.556 84.919 25.9493 85.6656 25.184C86.4123 24.4 86.9816 23.4853 87.3736 22.44C87.7843 21.3947 87.9896 20.2653 87.9896 19.052C87.9896 17.8387 87.7843 16.7093 87.3736 15.664C86.9816 14.6187 86.4123 13.7133 85.6656 12.948C84.919 12.164 84.0323 11.5573 83.0056 11.128C81.9976 10.6987 80.887 10.484 79.6736 10.484C78.4603 10.484 77.3403 10.6987 76.3136 11.128C75.3056 11.5573 74.4283 12.164 73.6816 12.948C72.9536 13.7133 72.3843 14.6187 71.9736 15.664C71.563 16.7093 71.3576 17.8387 71.3576 19.052C71.3576 20.2653 71.563 21.3947 71.9736 22.44C72.3843 23.4853 72.9536 24.4 73.6816 25.184C74.4283 25.9493 75.3056 26.556 76.3136 27.004C77.3403 27.4333 78.4603 27.648 79.6736 27.648ZM104.507 30.448C102.715 30.448 101.128 30.1213 99.7468 29.468C98.3654 28.796 97.2828 27.872 96.4988 26.696C95.7334 25.52 95.3508 24.176 95.3508 22.664V9.588C95.3508 9.15867 95.4908 8.81333 95.7708 8.552C96.0508 8.272 96.3961 8.132 96.8068 8.132C97.2361 8.132 97.5814 8.272 97.8428 8.552C98.1228 8.81333 98.2628 9.15867 98.2628 9.588V22.664C98.2628 23.672 98.5241 24.568 99.0468 25.352C99.5881 26.1173 100.325 26.724 101.259 27.172C102.211 27.6013 103.293 27.816 104.507 27.816C105.683 27.816 106.719 27.6013 107.615 27.172C108.529 26.724 109.239 26.1173 109.743 25.352C110.265 24.568 110.527 23.672 110.527 22.664V9.588C110.527 9.15867 110.667 8.81333 110.947 8.552C111.227 8.272 111.572 8.132 111.983 8.132C112.412 8.132 112.757 8.272 113.019 8.552C113.28 8.81333 113.411 9.15867 113.411 9.588V22.664C113.411 24.176 113.028 25.52 112.263 26.696C111.516 27.872 110.471 28.796 109.127 29.468C107.783 30.1213 106.243 30.448 104.507 30.448ZM120.459 30C120.048 30 119.703 29.86 119.423 29.58C119.143 29.3 119.003 28.9547 119.003 28.544V9.588C119.003 9.15867 119.143 8.81333 119.423 8.552C119.703 8.272 120.048 8.132 120.459 8.132H125.527C127.132 8.132 128.588 8.40267 129.895 8.944C131.22 9.46667 132.368 10.2227 133.339 11.212C134.31 12.1827 135.056 13.3307 135.579 14.656C136.102 15.9813 136.363 17.4467 136.363 19.052C136.363 20.6573 136.102 22.132 135.579 23.476C135.056 24.8013 134.31 25.9587 133.339 26.948C132.368 27.9187 131.22 28.6747 129.895 29.216C128.588 29.7387 127.132 30 125.527 30H120.459ZM121.915 27.424H125.527C127.095 27.424 128.476 27.0693 129.671 26.36C130.884 25.632 131.836 24.6427 132.527 23.392C133.218 22.1227 133.563 20.676 133.563 19.052C133.563 17.4093 133.218 15.9627 132.527 14.712C131.836 13.4613 130.884 12.4813 129.671 11.772C128.476 11.0627 127.095 10.708 125.527 10.708H121.915V27.424ZM139.518 30C138.995 30 138.594 29.776 138.314 29.328C138.034 28.88 138.006 28.404 138.23 27.9L146.098 9.112C146.378 8.45867 146.835 8.132 147.47 8.132C148.142 8.132 148.599 8.45867 148.842 9.112L156.738 27.956C156.943 28.4787 156.906 28.9547 156.626 29.384C156.365 29.7947 155.963 30 155.422 30C155.142 30 154.871 29.9253 154.61 29.776C154.367 29.608 154.19 29.384 154.078 29.104L147.134 11.856H147.918L140.862 29.104C140.731 29.4027 140.535 29.6267 140.274 29.776C140.031 29.9253 139.779 30 139.518 30ZM141.002 25.184L142.122 22.776H153.098L154.218 25.184H141.002Z" fill="#FBBF24"/>
<path d="M36.9651 1C36.9801 1.26096 36.9975 1.42499 36.9975 1.58653C37.0001 6.94984 37.005 12.3131 36.9851 17.674C36.9851 17.9747 36.8655 18.335 36.6762 18.5637C31.7394 24.536 26.7827 30.4932 21.846 36.4654C21.4748 36.9128 21.141 37.062 20.5432 36.9774C16.5853 36.4307 12.6921 35.6453 8.96839 34.1615C6.73662 33.2744 4.64183 32.1509 2.89826 30.4659C2.52713 30.108 2.17095 29.7277 1.84465 29.3276C1.26678 28.6169 0.990298 27.8314 1.00026 26.8746C1.04011 21.9462 1.02765 17.0179 1.00773 12.0895C1.00524 11.5949 1.13725 11.3762 1.63044 11.232C13.2103 7.87438 24.7851 4.49683 36.3624 1.12426C36.5368 1.08201 36.7161 1.05468 36.9651 1ZM2.39761 14.1572C2.38266 14.3635 2.36772 14.4854 2.36772 14.6071C2.36772 18.7899 2.36025 22.9727 2.38266 27.1554C2.38516 27.481 2.52713 27.8463 2.71146 28.1222C3.85225 29.8272 5.50117 30.9381 7.27964 31.8627C10.5326 33.5551 14.0472 34.4499 17.624 35.1234C18.4659 35.2825 19.3177 35.4017 20.1571 35.5385C20.202 35.3894 20.2344 35.3321 20.2344 35.2725C20.2393 30.6125 20.2393 25.955 20.2518 21.2951C20.2518 20.89 20.0276 20.8304 19.7138 20.7757C18.3039 20.5346 16.8891 20.3109 15.4893 20.0201C11.7282 19.2372 8.12153 18.0268 4.8411 15.984C4.00916 15.4645 3.26193 14.8059 2.39761 14.1572ZM2.75628 12.3429C3.05021 12.6785 3.23452 12.9942 3.50851 13.183C4.91582 14.1597 6.26087 15.2732 7.78026 16.0312C11.6385 17.9548 15.8231 18.8247 20.065 19.456C20.4934 19.5205 20.7375 19.4112 21.009 19.0856C25.0292 14.2691 29.0643 9.46498 33.0945 4.65589C33.4531 4.22842 33.7969 3.78603 34.1481 3.35111C34.1182 3.31383 34.0883 3.27654 34.0584 3.23927C23.6567 6.26141 13.2601 9.28605 2.75628 12.3429ZM21.5944 34.5319C21.8733 34.2162 22.0377 34.0448 22.1871 33.8633C23.4575 32.3324 24.7228 30.8014 25.9906 29.2704C29.0718 25.5574 32.1604 21.8518 35.2266 18.1263C35.4284 17.8803 35.5578 17.4975 35.5604 17.1793C35.5828 12.9792 35.5754 8.77898 35.5728 4.57636C35.5728 4.38748 35.5454 4.19611 35.5205 3.8606C34.3574 5.25237 33.2962 6.51988 32.2401 7.78739C28.8302 11.8733 25.4153 15.9542 22.0227 20.0549C21.7861 20.3432 21.6118 20.7782 21.6093 21.1484C21.5819 25.3486 21.5919 29.5488 21.5919 33.7515C21.5944 33.9478 21.5944 34.1466 21.5944 34.5319Z" fill="#FBBF24" stroke="#FBBF24"/>
</svg>
