<svg width="139" height="39" viewBox="0 0 139 39" fill="none"
  xmlns="http://www.w3.org/2000/svg">
  <path d="M36.9651 2C36.9801 2.26096 36.9975 2.42499 36.9975 2.58653C37.0001 7.94984 37.005 13.3131 36.9851 18.674C36.9851 18.9747 36.8655 19.335 36.6762 19.5637C31.7394 25.536 26.7827 31.4932 21.846 37.4654C21.4748 37.9128 21.141 38.062 20.5432 37.9774C16.5853 37.4307 12.6921 36.6452 8.96839 35.1615C6.73662 34.2744 4.64183 33.1509 2.89826 31.4659C2.52713 31.108 2.17095 30.7277 1.84465 30.3276C1.26678 29.6169 0.990298 28.8314 1.00026 27.8746C1.04011 22.9462 1.02765 18.0179 1.00773 13.0895C1.00524 12.5949 1.13725 12.3762 1.63044 12.232C13.2103 8.87438 24.7851 5.49683 36.3624 2.12426C36.5368 2.08201 36.7161 2.05468 36.9651 2ZM2.39761 15.1572C2.38266 15.3635 2.36772 15.4854 2.36772 15.6071C2.36772 19.7899 2.36025 23.9727 2.38266 28.1554C2.38516 28.481 2.52713 28.8463 2.71146 29.1222C3.85225 30.8272 5.50117 31.9381 7.27964 32.8627C10.5326 34.5551 14.0472 35.4499 17.624 36.1234C18.4659 36.2825 19.3177 36.4017 20.1571 36.5385C20.202 36.3894 20.2344 36.3321 20.2344 36.2725C20.2393 31.6125 20.2393 26.955 20.2518 22.2951C20.2518 21.89 20.0276 21.8304 19.7138 21.7757C18.3039 21.5346 16.8891 21.3109 15.4893 21.0201C11.7282 20.2372 8.12153 19.0268 4.8411 16.984C4.00916 16.4645 3.26193 15.8059 2.39761 15.1572ZM2.75628 13.3429C3.05021 13.6785 3.23452 13.9942 3.50851 14.183C4.91582 15.1597 6.26087 16.2732 7.78026 17.0312C11.6385 18.9548 15.8231 19.8247 20.065 20.456C20.4934 20.5205 20.7375 20.4112 21.009 20.0856C25.0292 15.2691 29.0643 10.465 33.0945 5.65589C33.4531 5.22842 33.7969 4.78603 34.1481 4.35111C34.1182 4.31383 34.0883 4.27654 34.0584 4.23926C23.6567 7.26141 13.2601 10.286 2.75628 13.3429ZM21.5944 35.5319C21.8733 35.2162 22.0377 35.0448 22.1871 34.8633C23.4575 33.3324 24.7228 31.8014 25.9906 30.2704C29.0718 26.5574 32.1604 22.8518 35.2266 19.1263C35.4284 18.8803 35.5578 18.4975 35.5604 18.1793C35.5828 13.9792 35.5754 9.77898 35.5728 5.57636C35.5728 5.38748 35.5454 5.19611 35.5205 4.8606C34.3574 6.25237 33.2962 7.51988 32.2401 8.78739C28.8302 12.8733 25.4153 16.9542 22.0227 21.0549C21.7861 21.3432 21.6118 21.7782 21.6093 22.1484C21.5819 26.3486 21.5919 30.5488 21.5919 34.7515C21.5944 34.9478 21.5944 35.1466 21.5944 35.5319Z" fill="#facc15" stroke="#facc15" stroke-width="2"/>
  <path d="M59.6251 22.8932C59.6251 23.6814 59.6203 24.4695 59.6274 25.2601C59.6321 25.7263 59.4622 26.079 59.0916 26.3796C57.8831 27.3618 56.4763 27.821 54.9586 27.9228C50.9342 28.195 47.4078 25.6624 46.315 21.7595C45.2481 17.9488 46.9546 13.8234 50.4716 11.9961C53.2497 10.5524 56.0302 10.6802 58.7045 12.3654C58.9028 12.4908 59.0845 12.647 59.2663 12.7961C59.5944 13.0636 59.7431 13.3713 59.4528 13.7618C59.094 14.247 58.773 14.3204 58.2985 14.0459C57.6235 13.6553 56.9815 13.1393 56.2521 12.9169C52.6738 11.8305 49.1144 13.7855 47.9484 17.4021C46.7092 21.2459 49.0978 25.4683 52.9972 26.2399C54.6541 26.5689 56.2474 26.2612 57.6896 25.3476C57.8524 25.2459 58.0011 24.9831 58.0058 24.7914C58.0365 23.6695 58.0129 22.5453 58.0271 21.421C58.0318 21.0612 57.8926 20.9334 57.5409 20.9382C56.6557 20.95 55.7706 20.9476 54.8878 20.9334C54.2647 20.924 53.9248 20.6589 53.9224 20.2163C53.9201 19.7713 54.2623 19.4849 54.8737 19.4778C56.1128 19.4636 57.352 19.4589 58.5889 19.4778C59.3418 19.4873 59.6062 19.7689 59.6227 20.5334C59.6369 21.3145 59.6251 22.105 59.6251 22.8932Z" fill="#facc15" stroke="#facc15" stroke-width="2"/>
  <path d="M73.4896 11.0011C78.3826 11.0745 81.8783 14.6248 81.8146 19.4579C81.7485 24.3786 78.1773 27.936 73.3574 27.8745C68.4597 27.8106 64.912 24.168 65.0017 19.2946C65.0914 14.3999 68.6438 10.9277 73.4896 11.0011ZM73.381 26.2816C76.9782 26.4733 80.2025 23.3893 80.1836 19.4319C80.167 15.5289 77.2426 12.5396 73.3881 12.5514C69.5596 12.5632 66.6068 15.5502 66.6068 19.3964C66.6091 23.5147 69.883 26.4496 73.381 26.2816Z" fill="#facc15" stroke="#facc15" stroke-width="2"/>
  <path d="M87.0002 18.1857C87.0002 16.5502 87.0002 14.9123 87.0002 13.2768C87.0002 13.0804 86.9955 12.8792 87.0286 12.6875C87.0994 12.2662 87.3543 12.02 87.7886 12.0011C88.2536 11.9821 88.5345 12.2212 88.6218 12.6685C88.6619 12.8792 88.6572 13.0993 88.6572 13.317C88.6596 16.4129 88.7186 19.5088 88.6407 22.6022C88.5699 25.3549 90.4275 26.936 92.7666 27.1514C93.6093 27.2295 94.5086 27.1537 95.3276 26.9407C97.2985 26.4247 98.4102 24.8886 98.4149 22.8484C98.4244 19.6555 98.4173 16.4602 98.4197 13.2673C98.4197 13.0709 98.4102 12.8697 98.4409 12.678C98.5023 12.2804 98.7454 12.046 99.149 12.0082C99.5786 11.9679 99.8784 12.162 100.008 12.5691C100.067 12.7514 100.063 12.9573 100.063 13.1537C100.067 16.3679 100.072 19.5798 100.065 22.794C100.058 26.0839 97.8272 28.4531 94.5416 28.7111C92.8823 28.8413 91.2867 28.6993 89.8067 27.8519C88.1403 26.8981 87.1584 25.4709 87.0569 23.5656C86.9625 21.7762 87.0357 19.9798 87.0357 18.1857C87.0238 18.1857 87.012 18.1857 87.0002 18.1857Z" fill="#facc15" stroke="#facc15" stroke-width="2"/>
  <path d="M105.002 19.2542C105.002 16.9086 105.002 14.563 105.004 12.2175C105.004 11.2423 105.25 10.982 106.225 11.0009C107.932 11.0364 109.657 10.9607 111.34 11.1855C114.937 11.6636 117.63 14.7595 117.829 18.3997C117.956 20.7263 117.498 22.866 115.95 24.6861C114.475 26.4186 112.57 27.2944 110.334 27.4246C108.923 27.5074 107.504 27.4695 106.09 27.4672C105.262 27.4672 105.004 27.195 105.002 26.3524C104.997 23.9831 105.002 21.6186 105.002 19.2542ZM106.657 19.1926C106.657 21.2613 106.669 23.3323 106.648 25.4009C106.643 25.8719 106.799 26.0234 107.257 26.0044C107.984 25.9737 108.711 25.9973 109.438 25.9926C110.818 25.9855 112.143 25.7536 113.297 24.9346C115.749 23.1973 116.523 20.776 116.096 17.8908C115.652 14.9015 113.36 12.7595 110.36 12.5488C109.343 12.4778 108.316 12.5346 107.297 12.4802C106.756 12.4518 106.641 12.6577 106.648 13.1618C106.671 15.1713 106.657 17.1831 106.657 19.1926Z" fill="#facc15" stroke="#facc15" stroke-width="2"/>
  <path d="M137.208 27.7752C136.996 27.9764 136.798 28.2911 136.517 28.4048C136.078 28.5823 135.705 28.3574 135.516 27.9195C135.136 27.032 134.742 26.1491 134.421 25.2403C134.222 24.684 133.92 24.5136 133.337 24.5231C131.076 24.5586 128.815 24.5491 126.554 24.5278C126.11 24.5231 125.883 24.6698 125.727 25.0864C125.397 25.9716 125.017 26.8379 124.651 27.7089C124.373 28.3763 124 28.5965 123.502 28.4024C123.001 28.2107 122.862 27.716 123.145 27.0438C124.158 24.6272 125.177 22.2154 126.195 19.8012C127.181 17.4604 128.17 15.1195 129.152 12.7763C129.329 12.355 129.525 11.9953 130.063 12C130.58 12.0047 130.753 12.3621 130.92 12.7598C132.931 17.5337 134.945 22.3053 136.958 27.0769C137.031 27.2639 137.09 27.4509 137.208 27.7752ZM126.572 23.1148C128.923 23.1148 131.175 23.1148 133.526 23.1148C132.367 20.3077 131.232 17.5645 130.045 14.6888C128.85 17.5858 127.722 20.3266 126.572 23.1148Z" fill="#facc15" stroke="#facc15" stroke-width="2"/>
</svg>
