<svg width="171" height="39" viewBox="0 0 171 39" fill="none"
  xmlns="http://www.w3.org/2000/svg">
  <path d="M36.9651 2C36.9801 2.26096 36.9975 2.42499 36.9975 2.58653C37.0001 7.94984 37.005 13.3131 36.9851 18.674C36.9851 18.9747 36.8655 19.335 36.6762 19.5637C31.7394 25.536 26.7827 31.4932 21.846 37.4654C21.4748 37.9128 21.141 38.062 20.5432 37.9774C16.5853 37.4307 12.6921 36.6453 8.96839 35.1615C6.73662 34.2744 4.64183 33.1509 2.89826 31.4659C2.52713 31.108 2.17095 30.7277 1.84465 30.3276C1.26678 29.6169 0.990298 28.8314 1.00026 27.8746C1.04011 22.9462 1.02765 18.0179 1.00773 13.0895C1.00524 12.5949 1.13725 12.3762 1.63044 12.232C13.2103 8.87438 24.7851 5.49683 36.3624 2.12426C36.5368 2.08201 36.7161 2.05468 36.9651 2ZM2.39761 15.1572C2.38266 15.3635 2.36772 15.4854 2.36772 15.6071C2.36772 19.7899 2.36025 23.9727 2.38266 28.1554C2.38516 28.481 2.52713 28.8463 2.71146 29.1222C3.85225 30.8272 5.50117 31.9381 7.27964 32.8627C10.5326 34.5551 14.0472 35.4499 17.624 36.1234C18.4659 36.2825 19.3177 36.4017 20.1571 36.5385C20.202 36.3894 20.2344 36.3321 20.2344 36.2725C20.2393 31.6125 20.2393 26.955 20.2518 22.2951C20.2518 21.89 20.0276 21.8304 19.7138 21.7757C18.3039 21.5346 16.8891 21.3109 15.4893 21.0201C11.7282 20.2372 8.12153 19.0268 4.8411 16.984C4.00916 16.4645 3.26193 15.8059 2.39761 15.1572ZM2.75628 13.3429C3.05021 13.6785 3.23452 13.9942 3.50851 14.183C4.91582 15.1597 6.26087 16.2732 7.78026 17.0312C11.6385 18.9548 15.8231 19.8247 20.065 20.456C20.4934 20.5205 20.7375 20.4112 21.009 20.0856C25.0292 15.2691 29.0643 10.465 33.0945 5.65589C33.4531 5.22842 33.7969 4.78603 34.1481 4.35111C34.1182 4.31383 34.0883 4.27654 34.0584 4.23927C23.6567 7.26141 13.2601 10.286 2.75628 13.3429ZM21.5944 35.5319C21.8733 35.2162 22.0377 35.0448 22.1871 34.8633C23.4575 33.3324 24.7228 31.8014 25.9906 30.2704C29.0718 26.5574 32.1604 22.8518 35.2266 19.1263C35.4284 18.8803 35.5578 18.4975 35.5604 18.1793C35.5828 13.9792 35.5754 9.77898 35.5728 5.57636C35.5728 5.38748 35.5454 5.19611 35.5205 4.8606C34.3574 6.25237 33.2962 7.51988 32.2401 8.78739C28.8302 12.8733 25.4153 16.9542 22.0227 21.0549C21.7861 21.3432 21.6118 21.7782 21.6093 22.1484C21.5819 26.3486 21.5919 30.5488 21.5919 34.7515C21.5944 34.9478 21.5944 35.1466 21.5944 35.5319Z" fill="#facc15" stroke="#facc15" stroke-width="2"/>
  <path d="M71.6251 23.8932C71.6251 24.6814 71.6203 25.4695 71.6274 26.2601C71.6321 26.7263 71.4622 27.079 71.0916 27.3796C69.8831 28.3618 68.4763 28.821 66.9586 28.9228C62.9342 29.195 59.4078 26.6624 58.315 22.7595C57.2481 18.9488 58.9546 14.8234 62.4716 12.9961C65.2497 11.5524 68.0302 11.6802 70.7045 13.3654C70.9028 13.4908 71.0845 13.647 71.2663 13.7961C71.5944 14.0636 71.7431 14.3713 71.4528 14.7618C71.094 15.247 70.773 15.3204 70.2985 15.0459C69.6235 14.6553 68.9815 14.1393 68.2521 13.9169C64.6738 12.8305 61.1144 14.7855 59.9484 18.4021C58.7092 22.2459 61.0978 26.4683 64.9972 27.2399C66.6541 27.5689 68.2474 27.2612 69.6896 26.3476C69.8524 26.2459 70.0011 25.9831 70.0058 25.7914C70.0365 24.6695 70.0129 23.5453 70.0271 22.421C70.0318 22.0612 69.8926 21.9334 69.5409 21.9382C68.6557 21.95 67.7706 21.9476 66.8878 21.9334C66.2647 21.924 65.9248 21.6589 65.9224 21.2163C65.9201 20.7713 66.2623 20.4849 66.8737 20.4778C68.1128 20.4636 69.352 20.4589 70.5889 20.4778C71.3418 20.4873 71.6062 20.7689 71.6227 21.5334C71.6369 22.3145 71.6251 23.105 71.6251 23.8932Z" fill="#facc15" stroke="#facc15" stroke-width="2"/>
  <path d="M90.4896 12.0011C95.3826 12.0745 98.8783 15.6248 98.8146 20.4579C98.7485 25.3786 95.1773 28.936 90.3574 28.8745C85.4597 28.8106 81.912 25.168 82.0017 20.2946C82.0914 15.3999 85.6438 11.9277 90.4896 12.0011ZM90.381 27.2816C93.9782 27.4733 97.2025 24.3893 97.1836 20.4319C97.167 16.5289 94.2426 13.5396 90.3881 13.5514C86.5596 13.5632 83.6068 16.5502 83.6068 20.3964C83.6091 24.5147 86.883 27.4496 90.381 27.2816Z" fill="#facc15" stroke="#facc15" stroke-width="2"/>
  <path d="M108 19.1857C108 17.5502 108 15.9123 108 14.2768C108 14.0804 107.996 13.8792 108.029 13.6875C108.099 13.2662 108.354 13.02 108.789 13.0011C109.254 12.9821 109.535 13.2212 109.622 13.6685C109.662 13.8792 109.657 14.0993 109.657 14.317C109.66 17.4129 109.719 20.5088 109.641 23.6022C109.57 26.3549 111.428 27.936 113.767 28.1514C114.609 28.2295 115.509 28.1537 116.328 27.9407C118.299 27.4247 119.41 25.8886 119.415 23.8484C119.424 20.6555 119.417 17.4602 119.42 14.2673C119.42 14.0709 119.41 13.8697 119.441 13.678C119.502 13.2804 119.745 13.046 120.149 13.0082C120.579 12.9679 120.878 13.162 121.008 13.5691C121.067 13.7514 121.063 13.9573 121.063 14.1537C121.067 17.3679 121.072 20.5798 121.065 23.794C121.058 27.0839 118.827 29.4531 115.542 29.7111C113.882 29.8413 112.287 29.6993 110.807 28.8519C109.14 27.8981 108.158 26.4709 108.057 24.5656C107.963 22.7762 108.036 20.9798 108.036 19.1857C108.024 19.1857 108.012 19.1857 108 19.1857Z" fill="#facc15" stroke="#facc15" stroke-width="2"/>
  <path d="M132.002 21.2542C132.002 18.9086 132.002 16.563 132.004 14.2175C132.004 13.2423 132.25 12.982 133.225 13.0009C134.932 13.0364 136.657 12.9607 138.34 13.1855C141.937 13.6636 144.63 16.7595 144.829 20.3997C144.956 22.7263 144.498 24.866 142.95 26.6861C141.475 28.4186 139.57 29.2944 137.334 29.4246C135.923 29.5074 134.504 29.4695 133.09 29.4672C132.262 29.4672 132.004 29.195 132.002 28.3524C131.997 25.9831 132.002 23.6186 132.002 21.2542ZM133.657 21.1926C133.657 23.2613 133.669 25.3323 133.648 27.4009C133.643 27.8719 133.799 28.0234 134.257 28.0044C134.984 27.9737 135.711 27.9973 136.438 27.9926C137.818 27.9855 139.143 27.7536 140.297 26.9346C142.749 25.1973 143.523 22.776 143.096 19.8908C142.652 16.9015 140.36 14.7595 137.36 14.5488C136.343 14.4778 135.316 14.5346 134.297 14.4802C133.756 14.4518 133.641 14.6577 133.648 15.1618C133.671 17.1713 133.657 19.1831 133.657 21.1926Z" fill="#facc15" stroke="#facc15" stroke-width="2"/>
  <path d="M169.208 28.7752C168.996 28.9764 168.798 29.2911 168.517 29.4048C168.078 29.5823 167.705 29.3574 167.516 28.9195C167.136 28.032 166.742 27.1491 166.421 26.2403C166.222 25.684 165.92 25.5136 165.337 25.5231C163.076 25.5586 160.815 25.5491 158.554 25.5278C158.11 25.5231 157.883 25.6698 157.727 26.0864C157.397 26.9716 157.017 27.8379 156.651 28.7089C156.373 29.3763 156 29.5965 155.502 29.4024C155.001 29.2107 154.862 28.716 155.145 28.0438C156.158 25.6272 157.177 23.2154 158.195 20.8012C159.181 18.4604 160.17 16.1195 161.152 13.7763C161.329 13.355 161.525 12.9953 162.063 13C162.58 13.0047 162.753 13.3621 162.92 13.7598C164.931 18.5337 166.945 23.3053 168.958 28.0769C169.031 28.2639 169.09 28.4509 169.208 28.7752ZM158.572 24.1148C160.923 24.1148 163.175 24.1148 165.526 24.1148C164.367 21.3077 163.232 18.5645 162.045 15.6888C160.85 18.5858 159.722 21.3266 158.572 24.1148Z" fill="#facc15" stroke="#facc15" stroke-width="2"/>
</svg>
