<svg width="131" height="40" viewBox="0 0 131 40" fill="none" xmlns="http://www.w3.org/2000/svg">
<g clip-path="url(#clip0_10_2)">
<mask id="mask0_10_2" style="mask-type:luminance" maskUnits="userSpaceOnUse" x="0" y="0" width="131" height="40">
<path d="M0.5 0.5H130.5V39.5H0.5V0.5Z" fill="white" stroke="white"/>
</mask>
<g mask="url(#mask0_10_2)">
<path d="M38.2968 3.10156C38.311 3.35008 38.3275 3.50629 38.3275 3.66014C38.3299 8.76783 38.3346 13.8755 38.3157 18.9809C38.3157 19.2672 38.2024 19.6104 38.023 19.8282C33.3448 25.5158 28.6477 31.1891 23.9695 36.8767C23.6178 37.3027 23.3015 37.4448 22.735 37.3643C18.9844 36.8436 15.2951 36.0956 11.7664 34.6826C9.65149 33.8377 7.66642 32.7678 6.01417 31.1631C5.66248 30.8223 5.32495 30.4601 5.01574 30.0791C4.46814 29.4022 4.20614 28.6542 4.21558 27.743C4.25334 23.0495 4.24154 18.356 4.22266 13.6625C4.2203 13.1915 4.3454 12.9832 4.81275 12.8459C15.7861 9.6483 26.7547 6.43173 37.7256 3.2199C37.8909 3.17966 38.0608 3.15363 38.2968 3.10156ZM5.53974 15.6317C5.52558 15.8282 5.51142 15.9442 5.51142 16.0601C5.51142 20.0436 5.50434 24.027 5.52558 28.0104C5.52794 28.3205 5.66248 28.6684 5.83715 28.9311C6.91819 30.5548 8.48075 31.6128 10.1661 32.4933C13.2487 34.1051 16.5792 34.9572 19.9687 35.5986C20.7665 35.7501 21.5737 35.8637 22.3691 35.9939C22.4116 35.8519 22.4423 35.7974 22.4423 35.7406C22.447 31.3027 22.447 26.8672 22.4588 22.4294C22.4588 22.0436 22.2464 21.9868 21.949 21.9347C20.613 21.7051 19.2723 21.4921 17.9458 21.2152C14.3817 20.4696 10.9639 19.3169 7.85525 17.3714C7.06689 16.8767 6.35879 16.2495 5.53974 15.6317ZM5.87963 13.9039C6.15816 14.2235 6.33282 14.5241 6.59246 14.7039C7.92606 15.6341 9.20066 16.6945 10.6405 17.4164C14.2967 19.2483 18.2621 20.0767 22.2818 20.6779C22.6878 20.7394 22.9191 20.6353 23.1764 20.3252C26.986 15.7383 30.8098 11.1631 34.6289 6.58321C34.9687 6.17611 35.2945 5.75481 35.6273 5.34061C35.599 5.30511 35.5706 5.2696 35.5423 5.2341C25.6854 8.11221 15.8333 10.9927 5.87963 13.9039ZM23.7311 35.0353C23.9954 34.7347 24.1512 34.5714 24.2928 34.3986C25.4966 32.9406 26.6957 31.4826 27.8971 30.0246C30.8169 26.4885 33.7437 22.9596 36.6493 19.4116C36.8405 19.1773 36.9632 18.8128 36.9656 18.5098C36.9869 14.5098 36.9798 10.5098 36.9774 6.50747C36.9774 6.32759 36.9514 6.14534 36.9278 5.82582C35.8256 7.15126 34.82 8.35836 33.8192 9.56546C30.5879 13.4566 27.3519 17.343 24.137 21.2483C23.9128 21.5229 23.7476 21.9371 23.7452 22.2897C23.7193 26.2897 23.7287 30.2897 23.7287 34.2921C23.7311 34.4791 23.7311 34.6684 23.7311 35.0353Z" fill="#FB923C" stroke="black" stroke-width="2"/>
<path d="M69.836 11.7834C74.729 11.8568 78.2247 15.4071 78.161 20.2402C78.0949 25.1609 74.5237 28.7183 69.7038 28.6568C64.8061 28.5929 61.2584 24.9503 61.3481 20.0769C61.4378 15.1822 64.9902 11.71 69.836 11.7834ZM69.7274 27.0639C73.3246 27.2556 76.5489 24.1716 76.53 20.2142C76.5134 16.3112 73.589 13.3219 69.7345 13.3337C65.906 13.3455 62.9532 16.3325 62.9532 20.1787C62.9555 24.297 66.2294 27.2319 69.7274 27.0639Z" fill="#FB923C" stroke="black" stroke-width="2"/>
<path d="M98.8095 20.2308C98.8095 17.8852 98.8095 15.5396 98.8119 13.1941C98.8119 12.2189 99.0573 11.9586 100.032 11.9775C101.739 12.013 103.464 11.9373 105.147 12.1621C108.744 12.6402 111.437 15.7361 111.636 19.3763C111.763 21.7029 111.305 23.8426 109.757 25.6627C108.282 27.3952 106.377 28.271 104.141 28.4012C102.73 28.484 101.311 28.4461 99.8976 28.4438C99.0691 28.4438 98.8119 28.1716 98.8095 27.329C98.8048 24.9597 98.8095 22.5952 98.8095 20.2308ZM100.464 20.1692C100.464 22.2379 100.476 24.3089 100.455 26.3775C100.45 26.8485 100.606 27 101.064 26.981C101.791 26.9503 102.518 26.9739 103.245 26.9692C104.625 26.9621 105.95 26.7302 107.104 25.9112C109.556 24.1739 110.33 21.7526 109.903 18.8674C109.459 15.8781 107.167 13.7361 104.167 13.5254C103.15 13.4544 102.123 13.5112 101.104 13.4568C100.563 13.4284 100.448 13.6343 100.455 14.1384C100.478 16.1479 100.464 18.1597 100.464 20.1692Z" fill="#FB923C" stroke="black" stroke-width="2"/>
<path d="M58.6974 23.6198C58.6974 24.408 58.6926 25.1961 58.6997 25.9867C58.7044 26.4529 58.5345 26.8056 58.1639 27.1062C56.9554 28.0884 55.5486 28.5476 54.0309 28.6494C50.0065 28.9216 46.4801 26.389 45.3873 22.4861C44.3204 18.6754 46.0269 14.55 49.5439 12.7227C52.322 11.279 55.1025 11.4068 57.7768 13.092C57.9751 13.2174 58.1568 13.3736 58.3386 13.5227C58.6667 13.7902 58.8154 14.0979 58.5251 14.4884C58.1663 14.9736 57.8453 15.047 57.3708 14.7725C56.6958 14.3819 56.0538 13.8659 55.3244 13.6435C51.7461 12.5571 48.1867 14.5121 47.0207 18.1287C45.7815 21.9725 48.1701 26.1949 52.0695 26.9665C53.7264 27.2955 55.3197 26.9878 56.7619 26.0742C56.9247 25.9725 57.0734 25.7097 57.0781 25.518C57.1088 24.3961 57.0852 23.2719 57.0994 22.1476C57.1041 21.7878 56.9649 21.66 56.6132 21.6648C55.728 21.6766 54.8429 21.6742 53.9601 21.66C53.337 21.6506 52.9971 21.3855 52.9947 20.9429C52.9924 20.4979 53.3346 20.2115 53.946 20.2044C55.1851 20.1902 56.4243 20.1855 57.6612 20.2044C58.4141 20.2139 58.6785 20.4955 58.695 21.26C58.7092 22.0411 58.6974 22.8316 58.6974 23.6198Z" fill="#FB923C" stroke="black" stroke-width="2"/>
<path d="M127.15 27.7479C126.938 27.9491 126.74 28.2638 126.459 28.3775C126.02 28.555 125.647 28.3301 125.458 27.8922C125.078 27.0047 124.684 26.1218 124.363 25.213C124.164 24.6567 123.862 24.4863 123.279 24.4958C121.018 24.5313 118.757 24.5218 116.496 24.5005C116.052 24.4958 115.825 24.6425 115.669 25.0591C115.339 25.9443 114.959 26.8106 114.593 27.6816C114.315 28.349 113.942 28.5692 113.444 28.3751C112.943 28.1834 112.804 27.6887 113.087 27.0165C114.1 24.5999 115.119 22.1881 116.137 19.7739C117.123 17.4331 118.112 15.0922 119.094 12.749C119.271 12.3277 119.467 11.968 120.005 11.9727C120.522 11.9774 120.695 12.3348 120.862 12.7325C122.873 17.5064 124.887 22.278 126.9 27.0496C126.973 27.2366 127.032 27.4236 127.15 27.7479ZM116.514 23.0875C118.865 23.0875 121.117 23.0875 123.468 23.0875C122.309 20.2804 121.174 17.5372 119.987 14.6615C118.792 17.5585 117.664 20.2993 116.514 23.0875Z" fill="#FB923C" stroke="black" stroke-width="2"/>
<path d="M81.5574 18.1739C81.5574 16.5384 81.5574 14.9005 81.5574 13.265C81.5574 13.0686 81.5527 12.8674 81.5858 12.6757C81.6566 12.2544 81.9115 12.0082 82.3458 11.9893C82.8108 11.9703 83.0917 12.2094 83.179 12.6567C83.2191 12.8674 83.2144 13.0875 83.2144 13.3052C83.2168 16.4011 83.2758 19.497 83.1979 22.5904C83.1271 25.3431 84.9847 26.9242 87.3238 27.1396C88.1665 27.2177 89.0658 27.1419 89.8848 26.9289C91.8557 26.4129 92.9674 24.8768 92.9721 22.8366C92.9816 19.6437 92.9745 16.4484 92.9769 13.2555C92.9769 13.0591 92.9674 12.8579 92.9981 12.6662C93.0595 12.2686 93.3026 12.0342 93.7062 11.9964C94.1358 11.9561 94.4356 12.1502 94.5654 12.5573C94.6244 12.7396 94.6197 12.9455 94.6197 13.1419C94.6244 16.3561 94.6291 19.568 94.622 22.7822C94.615 26.0721 92.3844 28.4413 89.0988 28.6993C87.4395 28.8295 85.8439 28.6875 84.3639 27.8401C82.6975 26.8863 81.7156 25.4591 81.6141 23.5538C81.5197 21.7644 81.5929 19.968 81.5929 18.1739C81.581 18.1739 81.5692 18.1739 81.5574 18.1739Z" fill="#FB923C" stroke="black" stroke-width="2"/>
</g>
</g>
<defs>
<clipPath id="clip0_10_2">
<rect width="131" height="40" fill="white"/>
</clipPath>
</defs>
</svg>
