<svg width="155" height="38" viewBox="0 0 155 38" fill="none" xmlns="http://www.w3.org/2000/svg">
<path d="M54.6 30.28C53.088 30.28 51.6693 30 50.344 29.44C49.0373 28.8613 47.8893 28.068 46.9 27.06C45.9293 26.0333 45.164 24.8387 44.604 23.476C44.0627 22.1133 43.792 20.6387 43.792 19.052C43.792 17.484 44.0627 16.028 44.604 14.684C45.164 13.3213 45.9293 12.136 46.9 11.128C47.8893 10.1013 49.0373 9.29867 50.344 8.72C51.6507 8.14133 53.0693 7.852 54.6 7.852C56.0373 7.852 57.2693 8.03867 58.296 8.412C59.3413 8.78533 60.3867 9.40133 61.432 10.26C61.5813 10.372 61.6933 10.4933 61.768 10.624C61.8613 10.736 61.9173 10.8573 61.936 10.988C61.9733 11.1 61.992 11.24 61.992 11.408C61.992 11.7627 61.8613 12.0613 61.6 12.304C61.3573 12.5467 61.0493 12.6773 60.676 12.696C60.3213 12.7147 59.9853 12.5933 59.668 12.332C58.9773 11.7347 58.2587 11.2773 57.512 10.96C56.784 10.6427 55.8133 10.484 54.6 10.484C53.4987 10.484 52.4627 10.708 51.492 11.156C50.5213 11.604 49.6627 12.22 48.916 13.004C48.188 13.788 47.6187 14.7027 47.208 15.748C46.7973 16.7747 46.592 17.876 46.592 19.052C46.592 20.2467 46.7973 21.3667 47.208 22.412C47.6187 23.4387 48.188 24.344 48.916 25.128C49.6627 25.912 50.5213 26.528 51.492 26.976C52.4627 27.4053 53.4987 27.62 54.6 27.62C55.552 27.62 56.448 27.4613 57.288 27.144C58.1467 26.808 58.968 26.3507 59.752 25.772C60.088 25.5293 60.4147 25.4267 60.732 25.464C61.068 25.4827 61.348 25.6133 61.572 25.856C61.796 26.08 61.908 26.3973 61.908 26.808C61.908 26.9947 61.8707 27.1813 61.796 27.368C61.74 27.536 61.628 27.6947 61.46 27.844C60.4707 28.6653 59.3973 29.2813 58.24 29.692C57.0827 30.084 55.8693 30.28 54.6 30.28ZM61.908 26.808L59.108 26.248V21.236H55.244C54.8333 21.236 54.488 21.1147 54.208 20.872C53.928 20.6293 53.788 20.3213 53.788 19.948C53.788 19.5747 53.928 19.2667 54.208 19.024C54.488 18.7813 54.8333 18.66 55.244 18.66H60.48C60.9093 18.66 61.2547 18.8 61.516 19.08C61.7773 19.3413 61.908 19.6867 61.908 20.116V26.808ZM76.6736 30.28C75.031 30.28 73.5283 30.0093 72.1656 29.468C70.803 28.908 69.627 28.1333 68.6376 27.144C67.667 26.136 66.911 24.9507 66.3696 23.588C65.8283 22.2067 65.5576 20.6947 65.5576 19.052C65.5576 17.4093 65.8283 15.9067 66.3696 14.544C66.911 13.1813 67.667 12.0053 68.6376 11.016C69.627 10.008 70.803 9.23333 72.1656 8.692C73.5283 8.132 75.031 7.852 76.6736 7.852C78.3163 7.852 79.8096 8.132 81.1536 8.692C82.5163 9.23333 83.6923 10.008 84.6816 11.016C85.671 12.0053 86.4363 13.1813 86.9776 14.544C87.519 15.9067 87.7896 17.4093 87.7896 19.052C87.7896 20.6947 87.519 22.2067 86.9776 23.588C86.4363 24.9507 85.671 26.136 84.6816 27.144C83.6923 28.1333 82.5163 28.908 81.1536 29.468C79.8096 30.0093 78.3163 30.28 76.6736 30.28ZM76.6736 27.648C77.887 27.648 78.9976 27.4333 80.0056 27.004C81.0323 26.556 81.919 25.9493 82.6656 25.184C83.4123 24.4 83.9816 23.4853 84.3736 22.44C84.7843 21.3947 84.9896 20.2653 84.9896 19.052C84.9896 17.8387 84.7843 16.7093 84.3736 15.664C83.9816 14.6187 83.4123 13.7133 82.6656 12.948C81.919 12.164 81.0323 11.5573 80.0056 11.128C78.9976 10.6987 77.887 10.484 76.6736 10.484C75.4603 10.484 74.3403 10.6987 73.3136 11.128C72.3056 11.5573 71.4283 12.164 70.6816 12.948C69.9536 13.7133 69.3843 14.6187 68.9736 15.664C68.563 16.7093 68.3576 17.8387 68.3576 19.052C68.3576 20.2653 68.563 21.3947 68.9736 22.44C69.3843 23.4853 69.9536 24.4 70.6816 25.184C71.4283 25.9493 72.3056 26.556 73.3136 27.004C74.3403 27.4333 75.4603 27.648 76.6736 27.648ZM101.507 30.448C99.7148 30.448 98.1281 30.1213 96.7468 29.468C95.3654 28.796 94.2828 27.872 93.4988 26.696C92.7334 25.52 92.3508 24.176 92.3508 22.664V9.588C92.3508 9.15867 92.4908 8.81333 92.7708 8.552C93.0508 8.272 93.3961 8.132 93.8068 8.132C94.2361 8.132 94.5814 8.272 94.8428 8.552C95.1228 8.81333 95.2628 9.15867 95.2628 9.588V22.664C95.2628 23.672 95.5241 24.568 96.0468 25.352C96.5881 26.1173 97.3254 26.724 98.2588 27.172C99.2108 27.6013 100.293 27.816 101.507 27.816C102.683 27.816 103.719 27.6013 104.615 27.172C105.529 26.724 106.239 26.1173 106.743 25.352C107.265 24.568 107.527 23.672 107.527 22.664V9.588C107.527 9.15867 107.667 8.81333 107.947 8.552C108.227 8.272 108.572 8.132 108.983 8.132C109.412 8.132 109.757 8.272 110.019 8.552C110.28 8.81333 110.411 9.15867 110.411 9.588V22.664C110.411 24.176 110.028 25.52 109.263 26.696C108.516 27.872 107.471 28.796 106.127 29.468C104.783 30.1213 103.243 30.448 101.507 30.448ZM117.459 30C117.048 30 116.703 29.86 116.423 29.58C116.143 29.3 116.003 28.9547 116.003 28.544V9.588C116.003 9.15867 116.143 8.81333 116.423 8.552C116.703 8.272 117.048 8.132 117.459 8.132H122.527C124.132 8.132 125.588 8.40267 126.895 8.944C128.22 9.46667 129.368 10.2227 130.339 11.212C131.31 12.1827 132.056 13.3307 132.579 14.656C133.102 15.9813 133.363 17.4467 133.363 19.052C133.363 20.6573 133.102 22.132 132.579 23.476C132.056 24.8013 131.31 25.9587 130.339 26.948C129.368 27.9187 128.22 28.6747 126.895 29.216C125.588 29.7387 124.132 30 122.527 30H117.459ZM118.915 27.424H122.527C124.095 27.424 125.476 27.0693 126.671 26.36C127.884 25.632 128.836 24.6427 129.527 23.392C130.218 22.1227 130.563 20.676 130.563 19.052C130.563 17.4093 130.218 15.9627 129.527 14.712C128.836 13.4613 127.884 12.4813 126.671 11.772C125.476 11.0627 124.095 10.708 122.527 10.708H118.915V27.424ZM136.518 30C135.995 30 135.594 29.776 135.314 29.328C135.034 28.88 135.006 28.404 135.23 27.9L143.098 9.112C143.378 8.45867 143.835 8.132 144.47 8.132C145.142 8.132 145.599 8.45867 145.842 9.112L153.738 27.956C153.943 28.4787 153.906 28.9547 153.626 29.384C153.365 29.7947 152.963 30 152.422 30C152.142 30 151.871 29.9253 151.61 29.776C151.367 29.608 151.19 29.384 151.078 29.104L144.134 11.856H144.918L137.862 29.104C137.731 29.4027 137.535 29.6267 137.274 29.776C137.031 29.9253 136.779 30 136.518 30ZM138.002 25.184L139.122 22.776H150.098L151.218 25.184H138.002Z" fill="#FBBF24"/>
<path d="M36.9651 1C36.9801 1.26096 36.9975 1.42499 36.9975 1.58653C37.0001 6.94984 37.005 12.3131 36.9851 17.674C36.9851 17.9747 36.8655 18.335 36.6762 18.5637C31.7394 24.536 26.7827 30.4932 21.846 36.4654C21.4748 36.9128 21.141 37.062 20.5432 36.9774C16.5853 36.4307 12.6921 35.6452 8.96839 34.1615C6.73662 33.2744 4.64183 32.1509 2.89826 30.4659C2.52713 30.108 2.17095 29.7277 1.84465 29.3276C1.26678 28.6169 0.990298 27.8314 1.00026 26.8746C1.04011 21.9462 1.02765 17.0179 1.00773 12.0895C1.00524 11.5949 1.13725 11.3762 1.63044 11.232C13.2103 7.87438 24.7851 4.49683 36.3624 1.12426C36.5368 1.08201 36.7161 1.05468 36.9651 1ZM2.39761 14.1572C2.38266 14.3635 2.36772 14.4854 2.36772 14.6071C2.36772 18.7899 2.36025 22.9727 2.38266 27.1554C2.38516 27.481 2.52713 27.8463 2.71146 28.1222C3.85225 29.8272 5.50117 30.9381 7.27964 31.8627C10.5326 33.5551 14.0472 34.4499 17.624 35.1234C18.4659 35.2825 19.3177 35.4017 20.1571 35.5385C20.202 35.3894 20.2344 35.3321 20.2344 35.2725C20.2393 30.6125 20.2393 25.955 20.2518 21.2951C20.2518 20.89 20.0276 20.8304 19.7138 20.7757C18.3039 20.5346 16.8891 20.3109 15.4893 20.0201C11.7282 19.2372 8.12153 18.0268 4.8411 15.984C4.00916 15.4645 3.26193 14.8059 2.39761 14.1572ZM2.75628 12.3429C3.05021 12.6785 3.23452 12.9942 3.50851 13.183C4.91582 14.1597 6.26087 15.2732 7.78026 16.0312C11.6385 17.9548 15.8231 18.8247 20.065 19.456C20.4934 19.5205 20.7375 19.4112 21.009 19.0856C25.0292 14.2691 29.0643 9.46498 33.0945 4.65589C33.4531 4.22842 33.7969 3.78603 34.1481 3.35111C34.1182 3.31383 34.0883 3.27654 34.0584 3.23926C23.6567 6.26141 13.2601 9.28605 2.75628 12.3429ZM21.5944 34.5319C21.8733 34.2162 22.0377 34.0448 22.1871 33.8633C23.4575 32.3324 24.7228 30.8014 25.9906 29.2704C29.0718 25.5574 32.1604 21.8518 35.2266 18.1263C35.4284 17.8803 35.5578 17.4975 35.5604 17.1793C35.5828 12.9792 35.5754 8.77898 35.5728 4.57636C35.5728 4.38748 35.5454 4.19611 35.5205 3.8606C34.3574 5.25237 33.2962 6.51988 32.2401 7.78739C28.8302 11.8733 25.4153 15.9542 22.0227 20.0549C21.7861 20.3432 21.6118 20.7782 21.6093 21.1484C21.5819 25.3486 21.5919 29.5488 21.5919 33.7515C21.5944 33.9478 21.5944 34.1466 21.5944 34.5319Z" fill="#FBBF24" stroke="#FBBF24"/>
</svg>
