<svg xmlns="http://www.w3.org/2000/svg" xmlns:xlink="http://www.w3.org/1999/xlink" zoomAndPan="magnify" preserveAspectRatio="xMidYMid meet" version="1.0" viewBox="154.38 146.43 66.24 82.15"><defs><clipPath id="e1960b0fc0"><path d="M 188 155 L 211 155 L 211 200 L 188 200 Z M 188 155 " clip-rule="nonzero"/></clipPath><clipPath id="8dd3e93409"><path d="M 210.414062 155.253906 L 209.339844 200.179688 L 188.160156 199.675781 L 189.234375 154.75 Z M 210.414062 155.253906 " clip-rule="nonzero"/></clipPath><clipPath id="7c922b6bf8"><path d="M 209.625 188.378906 C 209.46875 194.878906 204.601562 200.03125 198.753906 199.890625 C 192.902344 199.753906 188.289062 194.371094 188.441406 187.875 L 188.953125 166.515625 C 189.105469 160.019531 193.972656 154.863281 199.824219 155.003906 C 205.671875 155.144531 210.289062 160.523438 210.132812 167.019531 Z M 209.625 188.378906 " clip-rule="nonzero"/></clipPath><clipPath id="236fe852a1"><path d="M 188 155 L 211 155 L 211 200 L 188 200 Z M 188 155 " clip-rule="nonzero"/></clipPath><clipPath id="2201d113f6"><path d="M 210.414062 155.253906 L 209.339844 200.246094 L 188.296875 199.742188 L 189.371094 154.753906 Z M 210.414062 155.253906 " clip-rule="nonzero"/></clipPath><clipPath id="259ad6a415"><path d="M 210.414062 155.253906 L 209.324219 200.84375 L 188.003906 200.332031 L 189.089844 154.746094 Z M 210.414062 155.253906 " clip-rule="nonzero"/></clipPath><clipPath id="08564becb5"><path d="M 209.625 188.378906 C 209.46875 194.875 204.601562 200.027344 198.753906 199.890625 C 192.90625 199.75 188.289062 194.371094 188.445312 187.871094 L 188.953125 166.515625 C 189.109375 160.015625 193.976562 154.863281 199.824219 155.003906 C 205.671875 155.144531 210.289062 160.523438 210.132812 167.019531 Z M 209.625 188.378906 " clip-rule="nonzero"/></clipPath><clipPath id="3cfb57fe3f"><path d="M 164 154 L 187 154 L 187 200 L 164 200 Z M 164 154 " clip-rule="nonzero"/></clipPath><clipPath id="fcd97008b7"><path d="M 185.484375 154.6875 L 186.515625 199.777344 L 165.257812 200.265625 L 164.226562 155.171875 Z M 185.484375 154.6875 " clip-rule="nonzero"/></clipPath><clipPath id="480d63b380"><path d="M 186.246094 187.953125 C 186.394531 194.449219 181.757812 199.828125 175.886719 199.960938 C 170.015625 200.09375 165.136719 194.9375 164.988281 188.4375 L 164.496094 166.9375 C 164.347656 160.441406 168.984375 155.0625 174.855469 154.929688 C 180.726562 154.796875 185.605469 159.953125 185.753906 166.453125 Z M 186.246094 187.953125 " clip-rule="nonzero"/></clipPath><clipPath id="58a764e108"><path d="M 164 154 L 187 154 L 187 200 L 164 200 Z M 164 154 " clip-rule="nonzero"/></clipPath><clipPath id="a92d42e619"><path d="M 185.484375 154.6875 L 186.515625 199.675781 L 165.46875 200.15625 L 164.441406 155.167969 Z M 185.484375 154.6875 " clip-rule="nonzero"/></clipPath><clipPath id="35d1354ee0"><path d="M 185.484375 154.695312 L 186.527344 200.261719 L 165.214844 200.75 L 164.171875 155.183594 Z M 185.484375 154.695312 " clip-rule="nonzero"/></clipPath><clipPath id="d6856da20c"><path d="M 186.246094 187.941406 C 186.394531 194.4375 181.757812 199.8125 175.890625 199.945312 C 170.023438 200.078125 165.148438 194.925781 164.996094 188.429688 L 164.503906 166.941406 C 164.355469 160.445312 168.992188 155.070312 174.859375 154.9375 C 180.726562 154.804688 185.605469 159.960938 185.753906 166.453125 Z M 186.246094 187.941406 " clip-rule="nonzero"/></clipPath><clipPath id="c21c42606e"><path d="M 162.644531 176.417969 L 212.367188 176.417969 L 212.367188 220.3125 L 162.644531 220.3125 Z M 162.644531 176.417969 " clip-rule="nonzero"/></clipPath><clipPath id="7614a757c5"><path d="M 187.5 176.417969 C 173.773438 176.417969 162.644531 186.242188 162.644531 198.363281 C 162.644531 210.484375 173.773438 220.3125 187.5 220.3125 C 201.226562 220.3125 212.355469 210.484375 212.355469 198.363281 C 212.355469 186.242188 201.226562 176.417969 187.5 176.417969 Z M 187.5 176.417969 " clip-rule="nonzero"/></clipPath><clipPath id="8fc57e119f"><path d="M 162.644531 176.417969 L 212 176.417969 L 212 219.96875 L 162.644531 219.96875 Z M 162.644531 176.417969 " clip-rule="nonzero"/></clipPath><clipPath id="d277e3cf06"><path d="M 187.5 176.417969 C 173.773438 176.417969 162.644531 186.242188 162.644531 198.363281 C 162.644531 210.484375 173.773438 220.308594 187.5 220.308594 C 201.222656 220.308594 212.351562 210.484375 212.351562 198.363281 C 212.351562 186.242188 201.222656 176.417969 187.5 176.417969 Z M 187.5 176.417969 " clip-rule="nonzero"/></clipPath><clipPath id="54621bbbc7"><path d="M 184.554688 200.6875 L 190.546875 200.6875 L 190.546875 205.496094 L 184.554688 205.496094 Z M 184.554688 200.6875 " clip-rule="nonzero"/></clipPath><clipPath id="d0cc9fd991"><path d="M 190.546875 203.089844 C 190.546875 201.761719 189.207031 200.6875 187.558594 200.6875 C 185.90625 200.6875 184.570312 201.761719 184.570312 203.089844 C 184.570312 204.417969 185.90625 205.496094 187.558594 205.496094 C 189.207031 205.496094 190.546875 204.417969 190.546875 203.089844 Z M 190.546875 203.089844 " clip-rule="nonzero"/></clipPath><clipPath id="82ec704ecd"><path d="M 193 172 L 205 172 L 205 207 L 193 207 Z M 193 172 " clip-rule="nonzero"/></clipPath><clipPath id="1f23a08396"><path d="M 204.0625 172.816406 L 203.265625 206.214844 L 193.949219 205.992188 L 194.746094 172.59375 Z M 204.0625 172.816406 " clip-rule="nonzero"/></clipPath><clipPath id="109c6d6779"><path d="M 204.0625 172.816406 L 203.265625 206.207031 L 193.949219 205.984375 L 194.746094 172.59375 Z M 204.0625 172.816406 " clip-rule="nonzero"/></clipPath><clipPath id="0e6d7aa572"><path d="M 192.730469 191.339844 L 200.039062 191.339844 L 200.039062 201.414062 L 192.730469 201.414062 Z M 192.730469 191.339844 " clip-rule="nonzero"/></clipPath><clipPath id="fed874cfe5"><path d="M 196.386719 191.339844 C 194.367188 191.339844 192.730469 193.59375 192.730469 196.375 C 192.730469 199.15625 194.367188 201.410156 196.386719 201.410156 C 198.402344 201.410156 200.039062 199.15625 200.039062 196.375 C 200.039062 193.59375 198.402344 191.339844 196.386719 191.339844 Z M 196.386719 191.339844 " clip-rule="nonzero"/></clipPath><clipPath id="50eb88133b"><path d="M 170 172 L 181 172 L 181 201 L 170 201 Z M 170 172 " clip-rule="nonzero"/></clipPath><clipPath id="bc13257f19"><path d="M 180.027344 172.589844 L 180.667969 200.476562 L 171.261719 200.691406 L 170.625 172.808594 Z M 180.027344 172.589844 " clip-rule="nonzero"/></clipPath><clipPath id="0a31a16077"><path d="M 180.027344 172.589844 L 180.667969 200.449219 L 171.261719 200.667969 L 170.625 172.808594 Z M 180.027344 172.589844 " clip-rule="nonzero"/></clipPath><clipPath id="106b8a1f24"><path d="M 170 172 L 181 172 L 181 201 L 170 201 Z M 170 172 " clip-rule="nonzero"/></clipPath><clipPath id="be07fba2ef"><path d="M 180.027344 172.589844 L 180.660156 200.164062 L 171.226562 200.382812 L 170.597656 172.808594 Z M 180.027344 172.589844 " clip-rule="nonzero"/></clipPath><clipPath id="688069c337"><path d="M 180.027344 172.601562 L 180.667969 200.488281 L 170.707031 200.714844 L 170.070312 172.828125 Z M 180.027344 172.601562 " clip-rule="nonzero"/></clipPath><clipPath id="22d035afca"><path d="M 180.027344 172.601562 L 180.667969 200.441406 L 171.269531 200.65625 L 170.628906 172.816406 Z M 180.027344 172.601562 " clip-rule="nonzero"/></clipPath><clipPath id="4f77f0d7a1"><path d="M 175.378906 191.339844 L 182.851562 191.339844 L 182.851562 201.4375 L 175.378906 201.4375 Z M 175.378906 191.339844 " clip-rule="nonzero"/></clipPath><clipPath id="a31393c5b0"><path d="M 179.113281 191.339844 C 177.050781 191.339844 175.378906 193.59375 175.378906 196.375 C 175.378906 199.15625 177.050781 201.410156 179.113281 201.410156 C 181.179688 201.410156 182.851562 199.15625 182.851562 196.375 C 182.851562 193.59375 181.179688 191.339844 179.113281 191.339844 Z M 179.113281 191.339844 " clip-rule="nonzero"/></clipPath></defs><g clip-path="url(#e1960b0fc0)"><g clip-path="url(#8dd3e93409)"><g clip-path="url(#7c922b6bf8)"><path fill="#ffffff" d="M 210.414062 155.253906 L 209.339844 200.179688 L 188.160156 199.675781 L 189.234375 154.75 Z M 210.414062 155.253906 " fill-opacity="1" fill-rule="nonzero"/></g></g></g><g clip-path="url(#236fe852a1)"><g clip-path="url(#2201d113f6)"><g clip-path="url(#259ad6a415)"><g clip-path="url(#08564becb5)"><path stroke-linecap="butt" transform="matrix(-0.017312, 0.72562, -0.72562, -0.017312, 210.413415, 155.255716)" fill="none" stroke-linejoin="miter" d="M 45.648041 -0.00253911 C 54.600552 -0.000796489 61.857059 6.5337 61.860909 14.592445 C 61.859379 22.651319 54.602483 29.187546 45.644592 29.185931 L 16.21401 29.188258 C 7.256118 29.186644 -0.000388425 22.652148 0.00114142 14.593274 C 0.00267126 6.5344 7.259567 -0.00182625 16.212079 -0.0000836382 Z M 45.648041 -0.00253911 " stroke="#000000" stroke-width="16.532867" stroke-opacity="1" stroke-miterlimit="4"/></g></g></g></g><g clip-path="url(#3cfb57fe3f)"><g clip-path="url(#fcd97008b7)"><g clip-path="url(#480d63b380)"><path fill="#ffffff" d="M 185.484375 154.6875 L 186.515625 199.695312 L 165.257812 200.179688 L 164.226562 155.171875 Z M 185.484375 154.6875 " fill-opacity="1" fill-rule="nonzero"/></g></g></g><g clip-path="url(#58a764e108)"><g clip-path="url(#a92d42e619)"><g clip-path="url(#35d1354ee0)"><g clip-path="url(#d6856da20c)"><path stroke-linecap="butt" transform="matrix(0.0166198, 0.725637, -0.725637, 0.0166198, 185.48387, 154.694258)" fill="none" stroke-linejoin="miter" d="M 45.817933 -0.00101908 C 54.770191 -0.000540678 62.027323 6.555539 62.025163 14.641063 C 62.023003 22.726587 54.772487 29.278763 45.820105 29.283665 L 16.207094 29.2837 C 7.254836 29.283222 -0.00229541 22.727142 -0.000135651 14.641618 C 0.00202411 6.556094 7.258044 -0.00133906 16.204922 -0.000983892 Z M 45.817933 -0.00101908 " stroke="#000000" stroke-width="16.532867" stroke-opacity="1" stroke-miterlimit="4"/></g></g></g></g><g clip-path="url(#c21c42606e)"><g clip-path="url(#7614a757c5)"><path fill="#ffffff" d="M 162.644531 176.417969 L 212.367188 176.417969 L 212.367188 220.3125 L 162.644531 220.3125 Z M 162.644531 176.417969 " fill-opacity="1" fill-rule="nonzero"/></g></g><g clip-path="url(#8fc57e119f)"><g clip-path="url(#d277e3cf06)"><path stroke-linecap="butt" transform="matrix(0.725827, 0, 0, 0.725827, 162.644715, 176.417962)" fill="none" stroke-linejoin="miter" d="M 34.244098 0.00000927877 C 15.332476 0.00000927877 -0.000253738 13.53522 -0.000253738 30.234925 C -0.000253738 46.93463 15.332476 60.46984 34.244098 60.46984 C 53.150338 60.46984 68.483068 46.93463 68.483068 30.234925 C 68.483068 13.53522 53.150338 0.00000927877 34.244098 0.00000927877 Z M 34.244098 0.00000927877 " stroke="#000000" stroke-width="16.532867" stroke-opacity="1" stroke-miterlimit="4"/></g></g><g clip-path="url(#54621bbbc7)"><g clip-path="url(#d0cc9fd991)"><path fill="#000000" d="M 190.546875 200.6875 L 190.546875 205.496094 L 184.570312 205.496094 L 184.570312 200.6875 Z M 190.546875 200.6875 " fill-opacity="1" fill-rule="nonzero"/></g></g><g clip-path="url(#82ec704ecd)"><g clip-path="url(#1f23a08396)"><g clip-path="url(#109c6d6779)"><path fill="#ffffff" d="M 204.0625 172.816406 L 203.265625 206.214844 L 193.949219 205.992188 L 194.746094 172.59375 Z M 204.0625 172.816406 " fill-opacity="1" fill-rule="nonzero"/></g></g></g><g clip-path="url(#0e6d7aa572)"><g clip-path="url(#fed874cfe5)"><path fill="#000000" d="M 192.730469 191.339844 L 200.039062 191.339844 L 200.039062 201.414062 L 192.730469 201.414062 Z M 192.730469 191.339844 " fill-opacity="1" fill-rule="nonzero"/></g></g><g clip-path="url(#50eb88133b)"><g clip-path="url(#bc13257f19)"><g clip-path="url(#0a31a16077)"><path fill="#ffffff" d="M 180.027344 172.589844 L 180.667969 200.441406 L 171.261719 200.65625 L 170.625 172.808594 Z M 180.027344 172.589844 " fill-opacity="1" fill-rule="nonzero"/></g></g></g><g clip-path="url(#106b8a1f24)"><g clip-path="url(#be07fba2ef)"><g clip-path="url(#688069c337)"><g clip-path="url(#22d035afca)"><path stroke-linecap="butt" transform="matrix(0.0166198, 0.725637, -0.725637, 0.0166198, 180.029261, 172.599994)" fill="none" stroke-linejoin="miter" d="M 0.00209958 0.00268981 L 38.368294 -0.00142652 L 38.367722 12.950551 L 0.00152714 12.954667 Z M 0.00209958 0.00268981 " stroke="#ffffff" stroke-width="12.399652" stroke-opacity="1" stroke-miterlimit="4"/></g></g></g></g><g clip-path="url(#4f77f0d7a1)"><g clip-path="url(#a31393c5b0)"><path fill="#000000" d="M 175.378906 191.339844 L 182.851562 191.339844 L 182.851562 201.40625 L 175.378906 201.40625 Z M 175.378906 191.339844 " fill-opacity="1" fill-rule="nonzero"/></g></g></svg>