<svg width="108" height="64" viewBox="0 0 93 40" fill="none"
  xmlns="http://www.w3.org/2000/svg">
  <path fill-rule="evenodd" clip-rule="evenodd" d="M41.3468 31.3491V9.20901C41.3468 8.7497 41.721 8.37787 42.1833 8.37787H49.7075C53.9429 8.43255 57.3891 11.8599 57.3891 16.0178C57.3891 20.1768 53.9418 23.6031 49.7042 23.6578L44.2614 23.6589V31.3491C44.2614 31.8085 43.8871 32.1803 43.4249 32.1803H42.1833C41.721 32.1792 41.3468 31.8074 41.3468 31.3491ZM44.2614 20.6493H49.6734C50.9413 20.6493 52.1334 20.1615 53.0293 19.2746C53.9252 18.3888 54.4183 17.212 54.4183 15.961C54.4183 13.3757 52.2952 11.2737 49.6866 11.2737H44.2614V20.6493Z" fill="#EE4D2D"></path>
  <path fill-rule="evenodd" clip-rule="evenodd" d="M76.5693 38.8152L82.2653 29.0919L75.4444 17.9984C75.2397 17.6659 75.4807 17.2405 75.8726 17.2405H78.6342L84.1199 26.0801L89.4174 17.2405H91.9655C92.354 17.2405 92.595 17.6604 92.3969 17.9929L79.5598 39.5654H77.003C76.6166 39.5643 76.3756 39.1477 76.5693 38.8152Z" fill="#EE4D2D"></path>
  <path fill-rule="evenodd" clip-rule="evenodd" d="M70.1634 31.2354V29.957L69.7396 30.3069C68.3682 31.441 66.6148 32.0655 64.8053 32.0655C60.6261 32.0655 57.2261 28.7398 57.2261 24.653C57.2261 20.6285 60.6261 17.3542 64.8053 17.3542C66.6159 17.3542 68.3682 17.9787 69.7396 19.1138L70.1634 19.4638V18.1854C70.1634 17.726 70.5376 17.3542 70.9999 17.3542H72.7346V32.0655H70.9999C70.5376 32.0655 70.1634 31.6936 70.1634 31.2354ZM64.7844 20.1145C62.1582 20.1145 60.0207 22.1541 60.0207 24.6617C60.0207 27.1869 62.2023 29.3205 64.7844 29.3205C67.3666 29.3205 69.5481 27.1869 69.5481 24.6617C69.5492 22.1541 67.4117 20.1145 64.7844 20.1145Z" fill="#EE4D2D"></path>
  <path d="M30.0979 8.33413H27.2263H4.87942C4.11115 8.33413 3.48817 7.71515 3.48817 6.95181C3.48817 6.60513 3.77105 6.32408 4.11996 6.32408H26.72C27.0689 6.32408 27.3518 6.04302 27.3518 5.69635V3.43257C27.3518 2.62111 26.6518 1.98463 25.8384 2.05572L2.93674 4.06468C1.30335 4.20575 0.048584 5.56402 0.048584 7.19349V11.3492V25.1702V29.0657C0.048584 30.8001 1.46404 32.2065 3.20971 32.2065H30.0957C31.8414 32.2065 33.2569 30.8001 33.2569 29.0657V11.475C33.2591 9.74051 31.8436 8.33413 30.0979 8.33413Z" fill="#EE4D2D"></path>
  <path d="M22.3074 24.7667C22.1082 26.3863 21.1143 27.6834 19.5733 28.333C18.7159 28.695 17.5668 28.8885 16.6555 28.8273C15.2389 28.7737 13.9071 28.4336 12.6799 27.8113C12.233 27.5849 11.5781 27.1377 11.085 26.7286C10.9727 26.6357 10.9144 26.5526 11.0233 26.4017C11.1389 26.23 11.5946 25.5749 11.6672 25.4666C11.7641 25.3201 11.9237 25.3124 12.0701 25.4262C12.0899 25.4415 12.2385 25.5563 12.2682 25.5782C13.4492 26.4913 14.9725 27.177 16.6665 27.2405C18.8018 27.212 20.3504 26.2671 20.6267 24.8039C20.9316 23.1919 19.6372 21.8085 17.1431 21.0375C16.3506 20.7925 14.3573 20.004 13.9885 19.7919C12.2517 18.7858 11.4416 17.4669 11.5572 15.8429C11.7333 13.5922 13.8477 11.9059 16.5311 11.8949C17.8046 11.8927 18.9988 12.1705 20.0631 12.6134C20.455 12.7764 21.1847 13.1646 21.4445 13.356C21.6261 13.4872 21.6118 13.6349 21.5402 13.7497C21.4346 13.9247 21.1187 14.4124 20.9921 14.6147C20.8996 14.7536 20.7852 14.77 20.6212 14.6683C19.2486 13.7584 17.8376 13.45 16.5674 13.4249C14.7348 13.461 13.3524 14.5349 13.2621 16.0091C13.2379 17.34 14.2626 18.3057 16.4386 19.0439C20.9283 20.4677 22.6299 22.142 22.3074 24.7667Z" fill="white"></path>
</svg>